<?xml version="1.0" standalone="no"?>
<!DOCTYPE svg PUBLIC "-//W3C//DTD SVG 20010904//EN"
 "http://www.w3.org/TR/2001/REC-SVG-20010904/DTD/svg10.dtd">
<svg version="1.0" xmlns="http://www.w3.org/2000/svg"
 width="300.000000pt" height="148.000000pt" viewBox="0 0 300.000000 148.000000"
 preserveAspectRatio="xMidYMid meet">
<metadata>
Created by potrace 1.10, written by Peter Selinger 2001-2011
</metadata>
<g transform="translate(0.000000,148.000000) scale(0.100000,-0.100000)"
fill="#000000" stroke="none">
<path d="M935 1452 c-102 -92 -148 -140 -186 -194 -82 -113 -72 -107 -184
-112 -85 -4 -106 -2 -142 15 -39 19 -44 19 -72 4 -25 -12 -36 -13 -53 -4 -11
6 -52 12 -90 13 -59 2 -71 -1 -89 -20 -24 -25 -20 -71 11 -121 l18 -30 218 -1
c119 -1 221 -5 225 -9 4 -4 -1 -46 -12 -93 -34 -153 -23 -360 27 -508 20 -58
83 -183 121 -238 53 -79 132 -154 161 -154 25 0 22 5 -44 73 -83 86 -102 112
-153 214 -49 97 -69 155 -87 258 -26 150 -11 323 41 454 27 70 31 91 15 91 -5
0 -10 -13 -10 -30 0 -20 -5 -30 -15 -30 -10 0 -15 10 -15 30 0 17 -4 30 -10
30 -5 0 -10 -14 -10 -31 0 -44 -23 -31 -24 14 l-1 36 63 0 62 -1 0 -35 c0 -19
-6 -41 -14 -49 -8 -8 -12 -23 -8 -36 4 -16 7 -18 10 -8 3 8 11 21 19 28 9 10
11 25 7 50 -5 27 -3 38 11 48 22 16 55 1 55 -25 0 -14 -6 -17 -27 -13 -32 5
-21 -13 12 -20 21 -5 18 -8 -31 -23 -13 -4 -14 -8 -5 -19 10 -12 16 -12 42 2
16 9 29 23 29 30 0 10 5 10 20 2 11 -6 18 -15 16 -19 -5 -8 7 -10 59 -11 16
-1 35 -6 42 -12 9 -7 14 -6 19 6 3 9 12 16 20 16 8 0 14 4 14 9 0 6 12 3 28
-5 51 -26 69 -15 27 18 -45 35 -24 98 34 98 19 0 31 -5 31 -13 0 -7 -12 -13
-27 -12 -23 0 -28 -4 -28 -25 0 -20 6 -26 28 -28 29 -4 36 -19 12 -28 -18 -7
-10 -24 12 -24 9 0 24 -7 33 -15 16 -14 18 -14 24 1 4 12 2 15 -9 11 -8 -4
-17 -2 -20 2 -11 19 24 19 41 0 17 -18 17 -20 -2 -34 -18 -13 -18 -14 -1 -15
12 0 19 10 23 30 4 16 11 27 16 24 5 -4 8 -14 5 -24 -3 -12 0 -17 8 -14 7 3
11 14 8 25 -6 23 0 24 21 3 9 -8 16 -11 16 -5 0 11 39 9 59 -3 8 -5 23 -1 39
11 20 15 28 30 30 61 3 34 7 42 23 42 13 0 18 4 13 12 -4 7 -3 8 4 4 15 -9 16
-36 2 -36 -5 0 -10 -13 -10 -29 0 -16 -6 -32 -12 -35 -7 -3 -2 -4 12 -3 18 1
24 7 22 20 -2 9 2 17 8 17 6 0 8 -4 5 -10 -3 -5 -1 -10 5 -10 7 0 10 -6 7 -14
-4 -9 0 -12 13 -9 10 3 21 0 24 -6 4 -6 12 -11 17 -11 6 0 7 5 4 10 -3 6 -1
10 5 10 18 0 50 -20 50 -31 0 -15 30 -43 38 -35 3 4 1 16 -6 27 -7 11 -10 24
-6 30 8 13 63 1 82 -17 12 -12 16 -11 32 8 11 14 19 18 20 10 0 -7 5 -10 10
-7 6 4 17 2 23 -4 9 -7 21 -6 40 4 25 13 28 12 39 -8 7 -12 11 -25 10 -29 -1
-3 5 -9 13 -12 9 -3 15 0 15 8 0 8 -5 16 -12 18 -6 2 -8 10 -4 16 4 7 16 10
27 7 13 -4 19 -2 19 9 0 9 -6 16 -12 17 -7 1 -22 2 -33 3 -16 1 -21 9 -23 39
-2 21 1 37 7 37 6 0 11 4 11 9 0 5 -9 7 -20 4 -12 -3 -20 0 -20 7 0 8 -11 11
-30 8 -23 -4 -30 -1 -30 12 0 13 -6 16 -25 12 -14 -2 -25 0 -25 7 0 9 -50 41
-65 41 -3 0 -5 -9 -5 -21 0 -12 4 -18 11 -13 7 4 10 1 7 -7 -3 -8 -12 -15 -21
-17 -14 -3 -16 2 -10 30 6 32 6 32 -12 15 -9 -10 -17 -29 -17 -42 0 -17 -6
-23 -19 -22 -11 1 -17 7 -15 13 5 13 -24 44 -40 44 -5 0 -2 -5 6 -11 13 -9 13
-10 0 -6 -10 3 -14 15 -13 33 2 27 1 28 -12 10 -8 -11 -12 -29 -9 -41 4 -15 0
-24 -11 -29 -9 -3 -14 -9 -12 -13 3 -5 -1 -14 -9 -21 -12 -11 -15 -10 -20 2
-3 8 -2 20 2 27 4 8 3 9 -4 5 -6 -4 -22 0 -36 9 -21 14 -24 14 -29 0 -4 -8
-17 -14 -29 -13 -13 0 -27 0 -33 -2 -22 -6 -37 1 -32 14 5 12 1 13 -26 1 -37
-15 -104 -17 -113 -4 -3 5 -10 7 -15 3 -5 -3 -16 -1 -22 5 -7 5 -26 9 -42 7
-38 -4 -49 2 -35 19 6 8 7 16 2 19 -5 3 -16 -12 -25 -34 -12 -32 -21 -40 -41
-40 -13 0 -27 4 -31 10 -4 6 -15 6 -32 -1 -19 -7 -28 -6 -34 3 -6 9 -10 8 -15
-6 -4 -11 -2 -21 6 -26 8 -5 9 -9 1 -14 -13 -9 -15 -36 -2 -36 5 0 11 10 13
23 2 18 9 22 38 22 32 0 35 -3 35 -29 0 -38 -27 -56 -56 -38 -17 11 -23 11
-29 1 -11 -17 -40 -3 -40 20 0 11 -3 26 -6 34 -3 8 3 22 12 32 23 23 0 39 -30
20 -12 -7 -36 -13 -55 -13 -19 -1 -38 -7 -42 -14 -4 -7 -11 -9 -14 -6 -14 14
53 115 130 196 44 47 109 104 145 128 l65 44 -40 -1 c-29 0 -49 -8 -70 -27z
m-541 -359 c-4 -79 -24 -82 -24 -4 0 44 4 61 13 61 10 0 13 -15 11 -57z m-228
20 c10 -48 11 -49 19 -10 5 27 12 37 26 37 13 0 19 -7 19 -24 0 -14 5 -28 10
-31 6 -4 10 7 10 24 0 22 5 31 16 31 12 0 15 -6 10 -22 -4 -13 -9 -38 -13 -56
-7 -39 -36 -41 -41 -2 -6 41 -19 44 -26 6 -9 -49 -32 -46 -46 5 -6 22 -14 47
-17 55 -3 8 1 14 11 14 9 0 18 -12 22 -27z m1138 -6 c8 -6 7 -10 -1 -14 -7 -2
-13 -13 -13 -23 0 -10 6 -20 13 -23 6 -2 9 -8 5 -12 -13 -14 -38 4 -38 29 0
14 -4 27 -10 31 -5 3 -2 14 8 26 12 14 18 16 21 7 2 -7 9 -17 15 -21z m269 16
c-2 -7 -4 -18 -5 -24 -2 -6 3 -14 10 -16 7 -3 12 4 12 16 0 12 5 21 11 21 7 0
9 -12 4 -36 -4 -24 -3 -34 4 -29 6 3 11 0 11 -8 0 -11 -13 -14 -52 -12 -29 1
-56 3 -60 4 -12 2 -9 51 3 51 5 0 7 5 4 10 -4 6 -4 18 -1 26 7 19 62 15 59 -3z
m174 -33 c2 -49 -7 -60 -49 -60 -27 0 -28 2 -28 56 l0 55 38 -3 c37 -3 37 -4
39 -48z m-585 2 c-7 -2 -12 -17 -12 -33 0 -19 -5 -29 -15 -29 -11 0 -15 11
-15 39 0 33 4 40 23 43 23 3 39 -13 19 -20z m-812 14 c0 -2 3 -11 6 -20 5 -12
0 -16 -20 -16 -14 0 -26 -4 -26 -10 0 -5 9 -10 20 -10 11 0 20 -4 20 -10 0
-19 -49 -10 -60 10 -15 28 4 60 35 60 14 0 25 -2 25 -4z m120 -5 c0 -5 -9 -11
-21 -14 -24 -7 -20 -33 5 -31 9 1 16 -4 16 -12 0 -17 -32 -18 -48 -2 -13 13
-16 50 -5 61 10 10 53 8 53 -2z m88 -19 c4 -28 -14 -52 -38 -52 -26 0 -43 26
-36 55 6 22 11 26 39 23 25 -2 33 -8 35 -26z m682 19 c0 -5 3 -22 6 -39 6 -30
5 -31 -27 -30 -19 1 -37 5 -41 11 -10 17 3 37 24 37 10 0 17 4 13 10 -3 5 -12
7 -20 3 -8 -3 -15 0 -15 6 0 6 14 11 30 11 17 0 30 -4 30 -9z m140 5 c0 -2 3
-11 6 -20 5 -12 0 -16 -20 -16 -14 0 -26 -5 -26 -11 0 -6 9 -9 20 -6 13 3 20
0 20 -9 0 -22 -48 -17 -60 6 -15 28 4 60 35 60 14 0 25 -2 25 -4z m458 -30 c6
-48 -50 -65 -70 -21 -14 32 5 57 41 53 20 -2 27 -9 29 -32z"/>
<path d="M506 1082 c-8 -13 11 -35 23 -28 16 10 14 36 -3 36 -8 0 -17 -4 -20
-8z"/>
<path d="M1790 1069 c0 -24 23 -21 28 4 2 10 -3 17 -12 17 -10 0 -16 -9 -16
-21z"/>
<path d="M1930 1473 c0 -9 97 -77 123 -86 9 -4 17 -16 17 -27 0 -11 6 -20 14
-20 7 0 21 -10 30 -22 9 -13 14 -16 11 -8 -3 8 0 7 7 -4 7 -10 23 -30 36 -44
12 -14 22 -29 22 -34 0 -5 4 -7 10 -3 18 11 42 -45 46 -109 4 -57 2 -66 -16
-76 -11 -6 -20 -16 -20 -22 0 -6 9 -3 19 6 20 18 35 8 25 -17 -3 -8 -1 -18 4
-21 5 -3 10 0 9 7 0 6 1 42 1 80 l2 67 33 0 c40 0 57 -15 57 -51 0 -30 -31
-59 -63 -59 -17 0 -17 -1 -1 -30 13 -21 21 -26 27 -17 5 7 5 -6 2 -30 -6 -39
-5 -43 14 -43 12 0 21 5 21 10 0 6 5 10 10 10 6 0 10 -12 10 -26 0 -23 -3 -26
-25 -22 -29 6 -31 1 -9 -30 9 -14 14 -36 12 -52 -3 -16 0 -26 5 -23 5 3 7 -9
3 -28 -4 -25 -4 -29 3 -14 9 19 10 19 10 -2 1 -12 -5 -24 -11 -26 -10 -4 -10
-6 0 -6 7 -1 11 -5 8 -10 -3 -4 -7 -32 -10 -62 -2 -30 -7 -63 -11 -74 -6 -16
-5 -17 4 -5 6 9 11 10 11 3 0 -20 -12 -43 -20 -38 -5 3 -6 -3 -3 -14 3 -10 0
-22 -5 -25 -6 -3 -8 -15 -5 -26 3 -13 0 -20 -8 -20 -11 0 -11 -3 1 -11 11 -8
12 -12 3 -16 -7 -2 -13 -14 -13 -25 0 -15 -5 -18 -16 -14 -14 5 -15 4 -5 -8
13 -15 6 -60 -8 -52 -4 3 -13 -9 -20 -25 -7 -16 -17 -26 -23 -23 -7 4 -8 2 -4
-4 9 -15 -22 -75 -34 -67 -6 3 -7 0 -4 -8 5 -15 -113 -145 -151 -166 -18 -9
-17 -10 12 -11 26 0 41 11 88 62 68 76 159 227 184 305 41 129 45 159 47 333
1 96 4 182 8 191 5 10 -3 28 -19 47 -15 18 -25 39 -23 48 3 16 26 17 249 15
l247 -2 20 26 c11 14 24 40 27 57 11 46 -11 61 -95 65 -39 1 -80 7 -90 13 -14
8 -26 7 -42 -1 -29 -16 -154 -15 -173 1 -10 8 -19 8 -34 1 -28 -16 -77 -14
-111 4 -17 9 -32 15 -35 15 -45 -2 -54 3 -85 46 -52 73 -143 166 -199 204 -28
19 -51 38 -51 43 0 4 -11 7 -25 7 -14 0 -25 -3 -25 -7z m574 -366 c8 -6 7 -10
-1 -14 -7 -2 -13 -13 -13 -23 0 -10 6 -20 13 -23 6 -2 8 -8 4 -13 -12 -12 -42
10 -42 32 0 11 -3 24 -8 31 -4 6 0 19 10 29 14 13 18 14 22 3 2 -8 9 -18 15
-22z m210 0 c8 -6 7 -10 -1 -14 -15 -6 -17 -43 -3 -43 6 0 10 -5 10 -11 0 -24
-35 -2 -40 26 -3 16 -8 28 -12 27 -5 -1 -17 -2 -29 -2 -14 0 -19 -5 -17 -17 2
-10 11 -17 21 -17 9 1 17 -4 17 -12 0 -21 -38 -17 -57 6 -18 21 -63 28 -63 10
0 -5 9 -10 20 -10 11 0 20 -4 20 -10 0 -5 -11 -10 -25 -10 -32 0 -55 41 -35
65 17 20 56 19 65 -2 6 -17 7 -17 16 0 6 11 22 17 43 17 23 0 36 6 41 18 6 14
8 15 13 2 3 -8 10 -19 16 -23z m148 -15 c-7 -2 -12 -17 -12 -33 0 -19 -5 -29
-15 -29 -11 0 -15 11 -15 39 0 33 4 40 23 43 23 3 39 -13 19 -20z m-422 14 c0
-2 3 -11 6 -20 5 -12 0 -16 -20 -16 -14 0 -26 -4 -26 -10 0 -5 9 -10 20 -10
11 0 20 -4 20 -10 0 -19 -49 -10 -60 10 -15 28 4 60 35 60 14 0 25 -2 25 -4z
m360 -11 c14 -17 5 -51 -17 -59 -22 -9 -50 1 -57 20 -16 41 45 73 74 39z"/>
<path d="M2752 1073 c5 -25 28 -28 28 -4 0 12 -6 21 -16 21 -9 0 -14 -7 -12
-17z"/>
<path d="M1447 1446 c-8 -21 33 -28 52 -8 15 15 15 15 -1 9 -10 -3 -18 -2 -18
3 0 15 -27 12 -33 -4z"/>
<path d="M55 1425 c-22 -21 -25 -33 -25 -100 0 -67 3 -79 25 -100 23 -24 31
-25 133 -25 101 0 110 2 130 23 19 20 22 35 22 103 0 71 -3 83 -23 102 -21 20
-34 22 -131 22 -100 0 -108 -2 -131 -25z m250 -100 l0 -80 -117 -3 -118 -3 0
86 0 86 118 -3 117 -3 0 -80z"/>
<path d="M174 1345 c-8 -20 4 -35 27 -35 14 0 19 7 19 25 0 18 -5 25 -20 25
-11 0 -23 -7 -26 -15z"/>
<path d="M158 1293 c23 -2 59 -2 80 0 20 2 1 4 -43 4 -44 0 -61 -2 -37 -4z"/>
<path d="M1168 1445 c-7 -7 -33 -13 -60 -14 -10 -1 -18 -8 -18 -17 0 -10 -6
-13 -17 -10 -23 7 -39 -3 -48 -33 -6 -18 -4 -22 6 -15 8 5 24 7 36 6 11 -2 25
2 29 9 5 9 2 10 -12 5 -13 -5 -11 1 9 20 23 21 35 25 63 21 19 -3 32 -2 30 2
-3 5 5 6 18 4 13 -3 27 0 30 6 4 7 -1 11 -13 11 -10 0 -26 2 -33 5 -8 3 -17 3
-20 0z"/>
<path d="M1775 1400 c50 -25 67 -25 35 0 -14 11 -36 20 -50 20 -21 0 -19 -3
15 -20z"/>
<path d="M1302 1371 c-10 -6 -8 -10 8 -14 12 -3 19 -10 15 -16 -3 -6 -1 -11 4
-11 6 0 11 4 11 9 0 5 3 16 6 25 7 18 -21 22 -44 7z"/>
<path d="M1977 1340 c3 -11 11 -20 19 -20 7 0 27 -14 45 -31 17 -17 32 -29 34
-27 6 6 -19 32 -62 65 -34 27 -40 29 -36 13z"/>
<path d="M1148 1343 c-20 -5 -31 -30 -17 -39 6 -3 19 5 31 18 14 15 22 19 25
11 6 -18 23 -16 23 2 0 15 -25 18 -62 8z"/>
<path d="M991 1326 c-17 -10 -20 -15 -10 -18 12 -4 12 -7 0 -22 -8 -9 -10 -20
-6 -24 4 -4 10 -1 12 6 3 7 11 19 20 27 8 8 13 21 11 29 -2 12 -7 13 -27 2z"/>
<path d="M1466 1322 c-4 -7 31 -72 39 -72 2 0 1 9 -2 20 -3 11 -10 20 -15 20
-6 0 -8 9 -5 20 5 19 -7 28 -17 12z"/>
<path d="M1890 1218 c0 -4 5 -8 10 -8 11 0 9 -20 -10 -89 -6 -23 -9 -50 -6
-58 9 -23 28 -3 23 23 -3 16 0 24 9 24 10 0 14 -13 14 -40 0 -29 6 -45 21 -58
11 -9 25 -27 30 -40 5 -13 13 -20 19 -17 17 10 11 33 -10 40 -31 10 -14 24 26
21 31 -3 62 -16 38 -16 -5 0 -10 -9 -11 -20 -1 -11 3 -20 8 -20 6 0 7 5 4 10
-3 6 -2 10 3 10 5 0 12 10 15 22 5 18 8 19 22 8 14 -12 18 -11 26 1 7 11 9 10
9 -6 0 -17 2 -17 10 -5 5 8 18 16 30 16 16 1 18 -2 9 -12 -12 -14 -7 -18 22
-15 17 2 32 -13 42 -41 5 -13 1 -16 -21 -13 -15 2 -35 4 -44 4 -13 1 -18 9
-18 28 0 39 -14 18 -15 -22 -1 -21 3 -35 10 -35 6 0 12 -7 12 -15 0 -8 -9 -15
-19 -15 -10 0 -18 -5 -18 -11 0 -5 4 -8 9 -4 5 3 17 -5 25 -17 11 -15 16 -18
16 -8 1 8 8 2 16 -13 12 -22 20 -27 37 -21 27 8 49 34 43 51 -3 7 2 19 10 28
9 8 11 15 5 15 -6 0 -8 7 -5 15 4 8 1 15 -5 15 -6 0 -10 4 -9 10 2 5 -14 25
-36 43 -36 31 -38 34 -25 58 8 13 16 26 19 29 3 3 6 18 7 35 1 26 0 27 -10 10
-5 -11 -16 -24 -24 -28 -7 -4 -13 -19 -13 -33 0 -41 -23 -22 -24 19 -1 32 2
37 22 37 27 0 28 8 5 26 -21 16 -37 18 -28 4 4 -6 -5 -10 -19 -10 -15 0 -26 6
-26 14 0 7 -7 20 -17 27 -15 13 -15 12 -5 -8 20 -37 13 -39 -17 -5 -26 32 -29
33 -34 13 -3 -14 0 -21 9 -21 10 0 14 -15 14 -60 l0 -59 -37 2 c-36 2 -38 4
-38 37 0 29 4 36 23 38 18 3 22 9 20 33 -3 33 -12 37 -27 12 -10 -17 -12 -17
-26 2 -9 11 -20 20 -25 20 -4 0 -11 3 -15 7 -4 4 -14 4 -23 1 -14 -5 -15 -3
-4 8 18 19 15 35 -8 35 -11 0 -20 -4 -20 -8z m62 -60 c27 -13 29 -23 19 -143
-1 -5 -6 -3 -11 5 -5 8 -10 41 -10 73 0 50 -3 59 -22 67 -13 5 -18 9 -12 9 5
1 22 -5 36 -11z m196 -70 c2 -13 -3 -18 -17 -18 -12 0 -21 -4 -21 -10 0 -5 9
-10 21 -10 11 0 17 -4 14 -10 -9 -15 -41 -12 -55 5 -7 9 -10 25 -6 41 5 20 12
25 34 22 16 -2 28 -10 30 -20z m54 -168 c2 -5 19 -11 38 -13 42 -3 47 -21 8
-25 -18 -2 -28 1 -28 10 0 8 -5 6 -11 -5 -13 -23 -29 -13 -29 19 0 24 15 34
22 14z m45 -76 c0 -8 -8 -14 -18 -14 -20 0 -33 15 -25 29 9 14 43 2 43 -15z"/>
<path d="M2295 1088 c1 -32 17 -40 38 -18 14 13 -2 50 -21 50 -13 0 -17 -9
-17 -32z"/>
<path d="M916 1082 c-2 -4 -1 -14 4 -22 7 -11 12 -12 21 -3 6 6 8 16 5 22 -8
13 -23 14 -30 3z"/>
<path d="M1380 1000 c0 -5 5 -10 11 -10 8 0 8 -5 -1 -15 -7 -8 -16 -13 -20
-10 -4 2 -15 -4 -25 -15 -18 -20 -51 -28 -40 -10 4 6 -5 5 -20 -2 -22 -10 -28
-9 -36 3 -8 11 -9 10 -7 -6 3 -20 6 -20 93 -15 6 0 24 -2 42 -6 29 -6 31 -8
22 -31 -5 -14 -6 -29 -3 -34 3 -6 1 -16 -6 -24 -6 -8 -7 -16 -2 -19 6 -3 12 1
16 9 3 9 12 12 23 8 10 -3 15 -3 11 2 -4 4 -3 16 3 26 14 26 79 26 110 -1 13
-10 19 -19 12 -20 -17 0 -4 -30 12 -30 24 0 26 19 5 40 -26 26 -26 34 1 20 30
-17 33 -7 4 18 -14 12 -25 17 -25 12 0 -6 -11 -10 -25 -10 -14 0 -25 6 -25 13
0 9 -2 9 -8 1 -6 -11 -38 -18 -71 -15 -9 1 -12 9 -9 25 5 23 2 24 -29 19 -26
-5 -33 -2 -33 11 0 12 5 16 18 12 21 -7 50 20 49 47 0 18 -47 26 -47 7z"/>
<path d="M882 956 c-10 -23 -52 -43 -52 -24 0 6 -11 8 -24 4 -13 -3 -26 -1
-28 4 -2 7 -9 6 -20 -2 -11 -9 -14 -19 -8 -33 8 -19 9 -19 9 3 1 20 21 34 21
14 0 -9 4 -10 70 -11 86 -1 91 -1 85 9 -3 6 -17 10 -31 10 -22 0 -23 2 -14 21
7 11 10 23 7 25 -2 2 -9 -7 -15 -20z"/>
<path d="M1085 970 c5 -9 2 -10 -14 -5 -25 8 -27 0 -5 -22 13 -14 17 -14 25
-2 12 19 11 26 -3 35 -7 5 -8 3 -3 -6z"/>
<path d="M686 953 c-10 -10 -16 -12 -12 -5 4 6 2 12 -3 12 -12 0 -14 -11 -5
-34 3 -9 17 -16 30 -16 15 0 24 -6 24 -15 0 -22 -57 -20 -63 3 -4 16 -5 16 -6
-1 0 -10 6 -25 14 -33 17 -18 20 -34 5 -34 -5 0 -10 -5 -10 -11 0 -5 4 -7 10
-4 6 4 7 -1 3 -11 -5 -14 -3 -16 11 -11 13 5 17 3 13 -6 -3 -8 -1 -20 4 -28 6
-10 9 -7 9 12 0 14 -3 29 -7 33 -12 12 -13 45 -2 52 18 11 53 11 62 -1 4 -7
10 -7 15 0 9 13 51 13 60 0 12 -17 41 -14 35 4 -4 14 -2 13 10 -1 18 -22 27
-23 27 -2 0 9 6 14 14 11 15 -6 51 31 41 41 -4 4 -12 -1 -19 -11 -15 -20 -42
-23 -49 -4 -4 10 -6 10 -6 0 -1 -7 -12 -13 -25 -13 -13 0 -27 6 -29 13 -4 10
-6 10 -6 0 -1 -7 -10 -13 -20 -13 -11 0 -22 6 -24 13 -4 10 -6 10 -6 0 -1 -20
-41 -15 -48 5 -4 9 -15 23 -25 30 -15 11 -16 17 -7 28 16 20 7 18 -15 -3z"/>
<path d="M1490 941 c0 -16 -4 -21 -15 -17 -8 3 -15 1 -15 -4 0 -4 27 -9 60 -9
33 0 66 -3 73 -8 23 -14 35 -11 30 8 -5 17 -11 19 -49 13 -38 -5 -46 -3 -64
17 l-19 24 -1 -24z"/>
<path d="M1650 952 c0 -14 81 -50 101 -45 25 7 24 23 -1 24 -35 2 -39 4 -51
17 -14 13 -49 17 -49 4z"/>
<path d="M960 941 c0 -6 7 -11 15 -11 8 0 12 -6 9 -14 -3 -8 0 -17 7 -22 8 -4
10 -3 5 4 -5 8 1 12 17 12 14 0 30 7 37 15 10 12 7 14 -17 13 -15 0 -38 3 -50
7 -15 5 -23 3 -23 -4z"/>
<path d="M1140 936 c-6 -8 -17 -13 -25 -10 -7 3 -16 0 -20 -6 -5 -8 2 -11 21
-8 19 2 28 -1 27 -10 -2 -6 2 -12 7 -12 6 0 10 9 10 20 0 21 24 28 35 10 10
-17 33 -11 31 7 -3 20 -26 31 -26 12 0 -10 -3 -10 -12 -1 -16 16 -33 15 -48
-2z"/>
<path d="M1845 940 c-11 -4 -23 -6 -27 -3 -5 2 -8 -5 -8 -16 0 -17 4 -19 23
-13 29 11 57 4 57 -13 0 -12 -46 -18 -127 -16 -12 0 -25 -4 -28 -9 -3 -6 1 -7
9 -4 12 5 16 0 16 -20 0 -17 -5 -26 -16 -26 -14 0 -15 2 -3 17 12 14 12 16 0
12 -22 -8 -25 -28 -6 -36 12 -4 24 2 36 18 10 13 21 21 25 17 3 -4 15 -3 26 3
14 7 23 7 34 -2 11 -9 14 -8 14 6 0 14 5 16 27 10 15 -3 30 -10 33 -14 3 -4
16 -7 30 -8 14 -1 19 1 13 4 -22 8 -14 21 11 21 19 0 28 -8 35 -31 9 -25 13
-28 26 -17 12 10 15 10 15 -2 0 -8 -5 -19 -12 -26 -9 -9 -8 -12 5 -12 9 0 17
4 17 9 0 14 38 20 44 7 3 -7 5 -7 5 2 1 7 -17 19 -38 28 -32 12 -40 21 -44 47
-3 18 -1 36 4 42 5 5 9 13 9 17 0 12 -60 6 -60 -7 0 -5 -7 -2 -14 8 -17 22
-27 22 -19 0 5 -12 2 -15 -10 -10 -9 3 -19 2 -22 -3 -4 -6 15 -10 44 -10 42 0
51 -3 51 -17 0 -15 -2 -16 -10 -3 -6 10 -10 11 -10 3 0 -8 -13 -13 -30 -13
-17 0 -30 5 -30 13 0 8 -4 7 -10 -3 -8 -12 -11 -13 -19 -1 -5 7 -6 22 -3 34 4
14 1 18 -7 13 -6 -4 -17 -3 -24 2 -7 5 -21 6 -32 2z"/>
<path d="M1650 905 c8 -21 6 -25 -8 -26 -10 0 -12 -3 -4 -6 17 -7 15 -33 -3
-33 -17 0 -19 -9 -6 -28 6 -10 10 -8 14 8 3 12 10 19 15 16 5 -3 9 2 8 12 -1
13 6 16 27 14 15 -1 27 2 27 8 0 5 -11 10 -25 10 -18 0 -25 5 -25 19 0 10 -7
21 -15 24 -11 5 -12 1 -5 -18z"/>
<path d="M1060 895 c-7 -18 -7 -32 -1 -38 5 -5 12 3 16 23 9 41 -1 51 -15 15z"/>
<path d="M2050 905 c0 -8 40 -46 40 -37 0 4 5 0 10 -8 9 -13 10 -13 10 0 0 8
-5 22 -10 30 -9 13 -10 13 -10 0 -1 -12 -3 -12 -14 3 -13 16 -26 23 -26 12z"/>
<path d="M1115 891 c6 -11 4 -13 -8 -8 -10 3 -17 3 -17 -2 0 -5 10 -12 23 -15
21 -7 21 -8 3 -15 -17 -7 -18 -8 -3 -14 13 -5 57 21 45 27 -2 1 -14 10 -27 21
-14 11 -21 14 -16 6z"/>
<path d="M1350 892 c0 -6 -10 -13 -22 -13 -21 -1 -21 -2 -3 -6 11 -3 26 -10
33 -16 20 -16 26 0 8 25 -9 12 -16 17 -16 10z"/>
<path d="M995 881 c-14 -4 -20 -15 -21 -38 -2 -34 10 -44 20 -18 3 8 12 15 20
15 17 0 28 37 12 43 -6 2 -20 1 -31 -2z"/>
<path d="M1203 882 c-18 -2 -33 -7 -33 -12 0 -5 6 -7 14 -4 11 4 13 0 9 -14
-2 -11 1 -23 7 -27 8 -5 11 0 8 16 -2 18 1 23 14 21 17 -3 34 14 21 20 -5 2
-23 2 -40 0z"/>
<path d="M1466 845 c4 -8 12 -15 20 -15 7 0 22 -10 34 -22 23 -25 27 -13 5 18
-8 12 -11 25 -7 30 4 5 0 3 -10 -4 -11 -9 -18 -10 -23 -2 -10 16 -25 12 -19
-5z"/>
<path d="M2307 778 c-8 -20 -10 -35 -4 -37 13 -5 26 19 19 37 -3 10 -1 13 6 8
8 -5 10 -2 6 8 -9 22 -12 20 -27 -16z"/>
<path d="M994 791 c6 -9 72 -8 82 2 4 4 -14 7 -40 7 -26 0 -45 -4 -42 -9z"/>
<path d="M952 744 c-8 -26 -7 -34 1 -31 13 4 28 55 18 62 -4 2 -13 -12 -19
-31z"/>
<path d="M2110 770 c0 -6 7 -13 15 -16 8 -4 15 -14 15 -23 0 -13 2 -14 9 -2
12 19 -4 51 -24 51 -8 0 -15 -5 -15 -10z"/>
<path d="M1313 753 c12 -44 12 -48 -6 -47 -15 2 -16 -4 -11 -35 7 -34 6 -35
-12 -21 -18 14 -18 14 -3 -10 22 -34 33 -28 37 20 l3 40 130 0 c88 0 129 4
129 11 0 7 -12 9 -34 5 -29 -6 -34 -3 -39 15 -3 11 -10 18 -16 15 -6 -4 -8
-13 -5 -20 4 -11 -4 -14 -35 -13 -23 1 -41 6 -41 10 0 5 -5 5 -11 2 -5 -4 -22
-4 -35 -1 -20 5 -23 10 -15 20 13 16 4 26 -22 26 -14 0 -18 -5 -14 -17z"/>
<path d="M665 727 c-4 -21 -5 -41 -1 -44 3 -4 6 5 6 18 0 19 2 21 10 9 9 -13
10 -13 9 0 0 8 -4 24 -9 35 -6 17 -9 14 -15 -18z"/>
<path d="M2168 705 c4 -13 10 -25 15 -25 31 -1 37 1 32 11 -4 6 -13 8 -20 5
-8 -3 -11 2 -8 15 4 13 0 19 -10 19 -11 0 -14 -6 -9 -25z"/>
<path d="M1964 697 c3 -10 6 -21 6 -23 0 -3 5 -2 10 1 6 3 10 -1 10 -9 0 -9 6
-13 14 -10 8 3 25 0 38 -6 19 -10 21 -10 11 1 -7 7 -13 21 -13 31 0 10 -5 18
-11 18 -5 0 -7 -5 -3 -11 9 -16 -48 -2 -59 14 -6 8 -7 5 -3 -6z"/>
<path d="M1770 690 c0 -5 5 -10 10 -10 6 0 10 -4 10 -10 0 -5 -9 -10 -20 -10
-11 0 -20 -4 -20 -10 0 -5 7 -7 16 -3 11 4 22 -1 30 -12 9 -12 14 -14 14 -6 0
9 8 11 28 6 26 -6 26 -6 7 8 -11 9 -23 14 -26 11 -3 -2 -11 8 -17 21 -11 25
-32 34 -32 15z"/>
<path d="M1144 677 c3 -10 6 -30 6 -43 0 -13 4 -24 9 -24 12 0 3 62 -11 75 -8
7 -9 5 -4 -8z"/>
<path d="M1915 650 c-18 -34 -19 -60 -4 -60 6 0 9 9 6 20 -3 12 0 20 8 20 7 0
16 7 19 16 17 43 -7 47 -29 4z"/>
<path d="M2084 647 c-15 -23 -19 -39 -13 -55 12 -31 15 -28 16 14 1 20 7 40
13 44 7 4 11 13 9 18 -2 6 -13 -3 -25 -21z"/>
<path d="M637 647 c-7 -19 2 -57 14 -57 11 0 11 41 0 58 -7 11 -9 11 -14 -1z"/>
<path d="M1462 633 c-6 -2 -9 -9 -6 -14 3 -6 1 -15 -4 -22 -8 -9 11 -11 86 -7
88 5 97 7 99 25 1 16 1 17 -3 2 -4 -14 -15 -17 -45 -15 -23 1 -39 7 -39 14 0
7 11 11 25 9 14 -1 27 1 30 4 2 4 -10 8 -27 9 -23 2 -31 -2 -35 -18 -4 -16
-13 -20 -39 -18 -38 2 -46 24 -11 31 18 4 19 4 2 5 -11 0 -26 -2 -33 -5z"/>
<path d="M1265 581 c4 -13 -2 -27 -17 -42 -13 -12 -17 -19 -10 -15 7 5 12 1
12 -10 0 -25 18 -5 29 32 9 32 5 54 -11 54 -5 0 -7 -9 -3 -19z"/>
<path d="M1813 563 c-10 -8 -12 -11 -4 -7 7 3 17 1 21 -6 7 -11 12 -10 25 3 9
10 15 17 13 18 -27 6 -40 5 -55 -8z"/>
<path d="M1059 543 c-11 -29 -11 -51 1 -78 6 -14 8 -7 7 25 -1 29 2 44 9 43 7
-1 14 6 17 16 7 27 -23 22 -34 -6z"/>
<path d="M1362 561 c-8 -4 -14 -12 -15 -17 -1 -5 -14 -9 -29 -8 -18 0 -24 -3
-21 -13 3 -7 0 -13 -6 -13 -16 0 -13 -17 5 -24 8 -3 13 -2 10 3 -3 5 0 11 8
14 8 3 18 -5 25 -19 9 -21 8 -24 -12 -24 -20 -1 -20 -2 7 -16 21 -12 25 -19
17 -27 -14 -14 -43 -15 -53 -2 -5 6 -8 3 -8 -7 0 -9 6 -18 12 -20 10 -4 10
-10 1 -31 -8 -18 -9 -35 -3 -51 5 -14 5 -27 -1 -33 -5 -5 -6 -18 -2 -28 6 -17
8 -16 14 9 4 15 4 39 -1 52 -7 19 -6 26 4 30 8 3 12 12 9 20 -3 10 7 26 28 44
40 34 47 36 65 13 12 -16 13 -16 14 -1 0 12 6 15 23 10 12 -3 25 -10 29 -15 4
-7 12 -6 22 2 13 11 16 11 16 -3 0 -9 5 -16 10 -16 5 0 9 3 9 8 -1 4 -1 14 0
22 1 13 2 13 11 0 8 -12 13 -13 30 -2 24 14 33 16 25 3 -3 -6 7 -6 27 0 18 5
34 9 35 9 2 0 3 13 3 29 0 16 4 31 10 33 5 2 12 19 16 38 6 32 5 34 -8 16 -11
-14 -21 -17 -34 -12 -19 8 -18 8 0 15 18 7 18 8 -5 14 -35 10 -272 8 -287 -2z
m276 -57 c2 -21 7 -43 12 -49 6 -7 -41 -9 -141 -7 l-149 3 0 43 c0 23 2 45 4
47 2 2 64 3 138 3 l133 -2 3 -38z"/>
<path d="M1405 500 c-10 -17 5 -33 19 -21 7 6 16 8 20 4 12 -12 76 -10 76 2 0
7 -15 11 -37 10 -21 -1 -46 2 -55 7 -10 5 -19 4 -23 -2z"/>
<path d="M1537 503 c-14 -14 -6 -21 28 -25 22 -3 35 0 35 8 0 7 -12 10 -31 8
-18 -2 -28 0 -24 6 7 11 2 13 -8 3z"/>
<path d="M730 538 c0 -23 16 -48 31 -48 10 0 -10 58 -22 66 -5 3 -9 -5 -9 -18z"/>
<path d="M786 474 c-9 -22 -7 -52 2 -58 5 -3 8 8 7 25 -1 18 4 33 14 39 14 9
14 9 0 10 -9 0 -20 -7 -23 -16z"/>
<path d="M2070 473 c0 -10 -5 -24 -12 -31 -9 -9 -9 -12 -1 -12 7 0 15 10 19
23 7 21 7 21 15 2 4 -11 8 -14 8 -7 1 8 11 12 27 10 17 -2 29 3 32 12 5 13 3
13 -11 1 -11 -8 -17 -9 -17 -3 0 6 -7 9 -15 6 -8 -4 -22 -1 -30 6 -12 10 -15
9 -15 -7z"/>
<path d="M1003 446 c23 -18 21 -32 -5 -40 -35 -9 -38 -8 -48 20 -6 14 -15 22
-21 18 -8 -4 -8 -9 0 -17 23 -23 13 -40 -19 -33 -27 5 -32 1 -29 -20 0 -4 -5
-10 -12 -15 -10 -6 -10 -11 0 -23 18 -21 32 -10 25 18 -5 22 -4 23 40 16 40
-6 44 -5 33 8 -10 13 -9 15 5 10 9 -4 24 -1 34 7 13 9 24 10 36 4 20 -11 24 1
6 19 -7 7 -8 12 -4 12 5 0 3 7 -4 15 -7 8 -22 15 -34 15 -20 -1 -20 -2 -3 -14z"/>
<path d="M1120 419 c0 -22 -4 -30 -13 -26 -8 3 -14 -1 -14 -9 0 -20 27 -17 33
4 3 9 9 24 14 33 9 17 4 29 -12 29 -4 0 -8 -14 -8 -31z"/>
<path d="M2177 443 c-4 -3 -7 -15 -7 -25 0 -10 -4 -18 -10 -18 -5 0 -10 -8
-10 -17 0 -14 2 -15 9 -4 7 11 10 10 18 -4 7 -13 10 -6 10 29 1 48 1 50 -10
39z"/>
<path d="M2060 400 c-20 -15 -23 -21 -12 -31 8 -9 12 -10 12 -1 0 6 10 20 22
32 28 25 11 26 -22 0z"/>
<path d="M1983 393 c-7 -2 -13 -14 -13 -25 0 -15 -5 -18 -21 -13 -18 6 -19 5
-7 -14 7 -11 15 -17 18 -12 3 4 13 10 23 14 10 4 17 17 17 32 0 14 -1 25 -2
24 -2 0 -9 -3 -15 -6z"/>
<path d="M2119 333 c-19 -21 -21 -25 -6 -20 10 4 22 7 27 7 11 0 21 28 11 34
-4 3 -19 -6 -32 -21z"/>
<path d="M1070 321 c-8 -17 -8 -21 2 -19 8 2 13 -7 12 -23 0 -14 4 -26 10 -26
6 0 19 -4 29 -8 10 -4 17 -3 17 4 0 6 -10 11 -22 11 -14 0 -18 3 -12 8 8 5 6
17 -6 40 -18 33 -19 33 -30 13z"/>
<path d="M1982 290 c-7 -12 -17 -18 -22 -15 -6 3 -7 -1 -4 -9 7 -17 24 -22 24
-6 0 5 10 18 22 30 15 14 18 20 7 20 -8 0 -20 -9 -27 -20z"/>
<path d="M1220 283 c0 -25 -15 -31 -24 -10 -3 6 -5 3 -5 -8 2 -36 -1 -38 -22
-14 l-21 24 13 -23 c8 -13 17 -22 20 -20 4 2 17 -6 29 -17 l23 -20 -14 22
c-11 19 -11 24 3 40 12 13 14 23 8 33 -8 12 -10 10 -10 -7z"/>
<path d="M1388 222 c-2 -24 -1 -48 3 -53 3 -6 52 -8 114 -7 l109 3 0 50 0 50
-111 1 -111 0 -4 -44z m42 16 c0 -6 3 -8 7 -5 3 4 13 2 20 -5 11 -9 16 -9 23
1 5 9 10 10 14 2 8 -12 56 -11 56 2 0 4 4 6 9 2 5 -3 12 -1 16 5 8 13 25 13
25 1 0 -5 -7 -16 -15 -25 -13 -13 -13 -15 3 -19 9 -2 -22 -4 -70 -4 -69 1 -88
4 -92 16 -3 9 -9 22 -12 29 -3 6 -1 12 5 12 6 0 11 -5 11 -12z"/>
<path d="M1050 219 c-7 -11 -9 -27 -6 -35 7 -19 36 -18 36 2 0 10 7 14 18 12
9 -2 16 -9 15 -15 -1 -6 7 -13 18 -16 12 -3 18 -3 15 0 -3 4 -1 12 5 20 6 7 8
14 3 14 -20 4 -40 6 -63 8 -20 1 -21 3 -11 16 10 12 10 15 -3 15 -9 0 -21 -9
-27 -21z"/>
<path d="M927 189 c6 -23 40 -58 56 -59 12 0 8 19 -8 32 -9 7 -24 21 -35 32
-18 18 -19 18 -13 -5z"/>
<path d="M1180 158 c0 -9 10 -19 23 -22 21 -7 21 -7 2 -16 -19 -8 -19 -9 3 -9
29 -1 28 10 -3 39 -19 18 -25 20 -25 8z"/>
<path d="M1085 111 c11 -5 23 -7 27 -5 4 3 9 0 13 -6 7 -12 42 -13 49 -2 2 4
-3 9 -12 10 -9 1 -35 4 -57 7 -28 3 -34 2 -20 -4z"/>
<path d="M1293 74 c-17 -13 -17 -15 6 -34 13 -11 33 -20 45 -19 15 1 13 3 -10
10 -35 10 -51 34 -28 43 7 3 23 -5 35 -17 19 -20 21 -20 17 -3 -4 26 -42 38
-65 20z"/>
</g>
</svg>
