<?xml version="1.0" standalone="no"?>
<!DOCTYPE svg PUBLIC "-//W3C//DTD SVG 20010904//EN"
 "http://www.w3.org/TR/2001/REC-SVG-20010904/DTD/svg10.dtd">
<svg version="1.0" xmlns="http://www.w3.org/2000/svg"
 width="300.000000pt" height="146.000000pt" viewBox="0 0 300.000000 146.000000"
 preserveAspectRatio="xMidYMid meet">
<metadata>
Created by potrace 1.10, written by Peter Selinger 2001-2011
</metadata>
<g transform="translate(0.000000,146.000000) scale(0.100000,-0.100000)"
fill="#000000" stroke="none">
<path d="M710 1410 c0 -50 0 -50 -32 -51 -18 -1 -48 0 -66 1 -20 1 -34 -4 -38
-13 -10 -27 -35 -28 -60 -4 -24 24 -25 24 -239 23 -128 -1 -218 -5 -224 -11
-13 -13 2 -81 24 -105 14 -15 22 -17 37 -9 13 7 23 7 31 1 18 -15 338 -8 366
8 19 9 28 9 46 0 15 -8 48 -11 89 -8 l66 4 2 -43 c0 -24 1 -49 2 -55 3 -37 18
-38 723 -39 378 -1 691 -3 694 -5 3 -2 3 -20 0 -40 -6 -37 3 -247 14 -317 5
-32 2 -39 -17 -47 -22 -8 -22 -9 5 -9 26 -1 27 1 27 47 0 26 -5 112 -10 192
-6 79 -7 152 -4 162 3 12 15 18 35 18 16 0 29 5 29 10 0 6 5 10 10 10 6 0 10
-15 10 -32 0 -18 -4 -28 -8 -23 -4 6 -14 11 -22 13 -8 1 -4 -6 10 -17 25 -20
25 -20 28 -1 2 11 12 25 22 30 12 6 148 9 370 8 275 -2 350 0 350 10 0 6 5 12
10 12 6 0 10 62 10 165 l0 165 -1145 0 -1145 0 0 -50z m2270 -115 l0 -155
-1120 0 -1120 0 0 155 0 155 1120 0 1120 0 0 -155z m-2894 25 c7 -32 24 -32
24 0 0 18 17 36 26 28 8 -9 -28 -98 -40 -98 -7 0 -19 23 -28 50 -14 43 -14 50
-2 50 8 0 17 -13 20 -30z m124 20 c0 -5 -9 -10 -20 -10 -11 0 -20 -4 -20 -10
0 -5 9 -10 20 -10 11 0 20 -4 20 -10 0 -5 -9 -10 -20 -10 -11 0 -20 -4 -20
-10 0 -5 9 -10 20 -10 11 0 20 -4 20 -10 0 -5 -13 -10 -30 -10 -29 0 -30 1
-30 50 0 49 1 50 30 50 17 0 30 -4 30 -10z m75 -30 c1 -19 4 -41 8 -48 5 -7 3
-12 -7 -12 -8 0 -18 9 -21 20 -3 11 -11 20 -16 20 -6 0 -7 -9 -4 -20 5 -14 2
-20 -9 -20 -12 0 -16 11 -16 51 l0 50 33 -3 c29 -3 32 -6 32 -38z m83 28 c15
-15 15 -61 0 -76 -7 -7 -22 -12 -35 -12 -21 0 -23 4 -23 50 0 46 2 50 23 50
13 0 28 -5 35 -12z m52 -38 c0 -38 -4 -50 -15 -50 -11 0 -15 12 -15 50 0 38 4
50 15 50 11 0 15 -12 15 -50z m80 35 c16 -20 5 -32 -14 -16 -19 16 -36 6 -36
-19 0 -27 17 -33 42 -16 26 18 73 22 62 5 -3 -6 -14 -9 -24 -6 -9 2 -22 -4
-29 -14 -23 -38 -71 -17 -71 31 0 46 43 67 70 35z m134 -32 c9 -25 14 -48 12
-50 -2 -3 -14 2 -26 9 -18 10 -24 10 -27 1 -3 -7 -11 -13 -20 -13 -8 0 -12 6
-9 13 2 6 10 29 17 50 16 50 34 47 53 -10z m46 -3 c0 -27 -4 -50 -10 -50 -5 0
-10 23 -10 50 0 28 5 50 10 50 6 0 10 -22 10 -50z"/>
<path d="M820 1400 c0 -15 5 -20 18 -18 9 2 17 10 17 18 0 8 -8 16 -17 18 -13
2 -18 -3 -18 -18z"/>
<path d="M892 1398 c-9 -4 10 -7 43 -8 33 -1 70 -3 83 -4 13 -2 25 0 27 4 2 4
34 5 70 3 36 -2 65 0 65 5 0 10 -262 10 -288 0z"/>
<path d="M1315 1400 c-4 -6 7 -10 24 -10 17 0 31 5 31 10 0 6 -11 10 -24 10
-14 0 -28 -4 -31 -10z"/>
<path d="M1440 1402 c0 -4 18 -8 40 -9 22 -1 40 2 40 8 0 5 -18 9 -40 9 -22 0
-40 -4 -40 -8z"/>
<path d="M2684 1286 c-3 -7 -4 -31 -2 -52 l3 -39 110 0 109 0 0 50 0 50 -107
3 c-86 2 -108 0 -113 -12z m163 -12 c24 -7 38 -33 25 -46 -26 -26 -148 -20
-159 8 -14 36 61 57 134 38z"/>
<path d="M2740 1244 c0 -14 2 -15 17 -3 14 12 16 12 8 0 -5 -9 -4 -12 3 -7 6
4 20 3 29 -2 24 -13 55 -1 44 17 -6 9 -11 10 -15 2 -4 -6 -13 -11 -19 -11 -9
0 -8 3 1 8 8 6 -2 9 -28 10 -31 1 -40 -2 -40 -14z"/>
<path d="M820 1245 c0 -11 12 -15 50 -15 34 0 50 4 50 13 0 13 -38 16 -57 4
-7 -4 -14 -3 -18 3 -9 15 -25 12 -25 -5z"/>
<path d="M996 1243 c-4 -10 8 -13 49 -13 40 0 55 4 55 14 0 8 -9 13 -24 12
-13 0 -21 -5 -18 -11 3 -5 -1 -5 -9 1 -19 15 -47 14 -53 -3z"/>
<path d="M1227 1243 c6 -17 53 -17 53 0 0 8 3 8 8 1 10 -15 94 -16 89 -1 -5
15 -28 16 -46 3 -9 -7 -12 -7 -9 -1 4 6 -15 10 -47 11 -40 1 -52 -2 -48 -13z"/>
<path d="M1402 1252 c-17 -5 -15 -22 3 -22 8 0 15 6 15 13 0 8 2 9 8 1 10 -16
92 -16 92 -1 0 12 -90 19 -118 9z"/>
<path d="M1590 1247 c0 -10 26 -14 105 -16 65 -1 105 1 105 8 0 5 -8 10 -17
10 -10 0 -37 3 -61 5 -23 2 -44 0 -47 -5 -3 -4 -17 -4 -31 1 -35 14 -54 12
-54 -3z"/>
<path d="M1810 1246 c0 -7 21 -12 55 -14 39 -2 55 1 55 10 0 9 -18 13 -55 14
-36 1 -55 -2 -55 -10z"/>
<path d="M1990 1245 c0 -13 15 -16 95 -14 68 1 95 5 95 14 0 14 -87 17 -96 3
-3 -5 -13 -3 -22 4 -13 11 -14 11 -7 -1 6 -11 5 -12 -6 -5 -26 16 -59 16 -59
-1z"/>
<path d="M2190 1245 c0 -22 165 -22 173 -1 5 11 -2 14 -29 13 -18 -1 -34 -6
-34 -10 0 -5 -4 -6 -9 -3 -5 3 -29 8 -55 10 -36 4 -46 2 -46 -9z"/>
<path d="M2440 1246 c0 -9 13 -14 40 -14 53 -1 53 22 0 25 -28 2 -40 -1 -40
-11z"/>
<path d="M2530 1244 c0 -9 11 -14 30 -14 17 0 30 5 30 13 0 7 -13 13 -30 13
-19 1 -30 -3 -30 -12z"/>
<path d="M330 1300 c0 -21 4 -30 13 -27 6 2 12 14 12 27 0 13 -6 25 -12 28 -9
2 -13 -7 -13 -28z"/>
<path d="M2176 935 c4 -88 9 -162 11 -165 8 -9 -1 301 -9 313 -5 7 -6 -60 -2
-148z"/>
<path d="M2223 1004 c-9 -24 6 -258 17 -262 6 -2 10 -15 10 -28 0 -21 4 -24
33 -23 20 1 25 3 11 6 -12 2 -27 16 -34 31 -12 27 -33 270 -23 284 2 5 2 8 -2
8 -3 0 -8 -7 -12 -16z"/>
<path d="M1333 733 c-39 -18 -41 -32 -10 -60 20 -19 32 -21 169 -19 152 3 178
10 178 46 0 28 -24 40 -76 38 -27 -1 -89 1 -139 5 -71 5 -97 3 -122 -10z m22
-31 c-3 -7 -5 -19 -5 -25 -1 -13 -30 22 -30 34 0 4 9 7 20 6 13 -1 19 -6 15
-15z m41 -7 c1 -15 -3 -25 -12 -25 -8 0 -14 10 -14 25 0 33 25 33 26 0z m44
-2 c0 -20 -3 -24 -9 -14 -7 11 -9 11 -14 0 -3 -8 -6 -2 -6 14 -1 18 4 27 14
27 10 0 15 -10 15 -27z m70 -1 c0 -20 -3 -22 -14 -13 -10 8 -16 9 -21 1 -11
-18 -25 -11 -25 14 0 21 5 25 30 24 25 -1 30 -5 30 -26z"/>
<path d="M2387 690 c11 -11 133 -18 133 -8 0 4 -15 9 -32 9 -18 1 -50 3 -71 4
-21 1 -35 -1 -30 -5z"/>
<path d="M1825 670 c-8 -14 7 -35 26 -36 13 -1 14 3 5 22 -12 26 -21 30 -31
14z"/>
<path d="M2560 661 c-10 -19 -21 -21 -108 -23 l-97 -2 94 -3 c56 -2 98 0 105
7 18 18 26 11 26 -22 0 -44 12 -27 13 18 1 43 -16 55 -33 25z"/>
<path d="M1770 597 c0 -35 -2 -37 -33 -37 -21 0 -41 8 -52 20 -22 25 -30 25
-63 1 -15 -10 -45 -21 -68 -24 -33 -6 -44 -3 -59 13 -26 29 -95 27 -123 -3
-12 -13 -22 -29 -22 -35 0 -17 -7 -15 -40 9 -24 18 -33 20 -58 11 -35 -12
-118 2 -144 25 -12 11 -25 13 -45 8 -15 -5 -34 -7 -40 -6 -7 1 -26 -5 -43 -14
-17 -9 -34 -14 -39 -11 -4 3 -36 1 -71 -4 -58 -8 -65 -7 -99 16 -19 13 -41 24
-47 24 -17 0 -44 -34 -44 -57 0 -21 -20 -43 -57 -62 -15 -7 -37 -8 -72 -1 -63
12 -141 -1 -182 -31 -38 -27 -79 -98 -95 -165 -14 -60 -2 -65 17 -6 35 109 90
176 154 188 20 3 70 2 113 -3 42 -6 79 -6 80 -2 6 15 30 10 40 -7 17 -31 32
-4 32 57 0 51 2 59 19 59 17 0 19 -6 14 -62 -3 -35 -10 -69 -16 -75 -12 -16
-59 -17 -74 -2 -8 8 -23 5 -56 -9 -47 -21 -71 -50 -61 -76 7 -19 54 -50 54
-36 0 5 -4 10 -10 10 -5 0 -7 7 -4 15 4 8 1 15 -5 15 -26 0 5 30 47 44 55 19
52 19 52 1 0 -8 -12 -21 -27 -29 -24 -13 -25 -15 -8 -16 11 0 33 7 48 15 26
13 87 15 127 4 8 -2 14 2 13 9 -4 18 6 15 64 -17 52 -29 143 -50 143 -33 0 10
97 4 121 -9 8 -4 32 -4 53 1 29 6 39 5 43 -6 8 -23 -6 -30 -29 -15 -17 11 -22
11 -29 0 -5 -8 -3 -17 4 -22 9 -7 9 -10 0 -14 -18 -7 -16 -53 4 -75 15 -17 15
-18 -10 -18 -33 0 -37 7 -39 77 l-1 59 -93 -4 c-67 -2 -102 1 -129 12 -21 9
-52 16 -70 16 -19 0 -35 5 -37 12 -3 7 -13 5 -32 -7 -26 -17 -27 -20 -10 -26
11 -4 28 -8 39 -8 18 -1 20 -6 17 -36 -2 -19 -8 -35 -13 -35 -5 0 0 -9 11 -20
30 -30 40 -17 40 51 0 47 3 59 15 59 13 0 15 -12 13 -66 -2 -55 -7 -69 -23
-78 -11 -6 -23 -16 -27 -22 -4 -6 -35 -17 -69 -24 -47 -10 -58 -15 -43 -21 26
-10 36 -11 30 0 -6 9 73 25 82 17 3 -3 -6 -10 -19 -15 -22 -9 -21 -10 14 -10
20 -1 37 4 37 9 0 6 7 10 15 10 9 0 15 10 15 26 l0 25 28 -19 c15 -11 36 -29
47 -39 28 -26 99 -19 142 14 18 14 38 23 45 20 10 -4 9 -6 -1 -6 -11 -1 -10
-5 5 -15 11 -8 23 -11 29 -6 15 12 120 24 193 22 54 -2 66 1 86 21 l23 23 18
-26 c16 -24 21 -26 64 -19 25 3 54 9 63 13 10 5 26 1 40 -8 12 -9 30 -16 40
-16 12 0 18 -8 18 -24 0 -18 -7 -25 -32 -30 -19 -4 -34 -2 -38 5 -4 6 -10 2
-13 -11 -5 -21 -3 -22 31 -16 20 3 44 6 53 6 8 0 16 8 16 18 -1 58 4 83 14 76
6 -3 9 -17 6 -30 -3 -19 -1 -22 8 -14 9 8 24 6 51 -4 22 -8 67 -22 101 -31 34
-8 70 -18 79 -22 14 -5 15 -3 6 14 -9 15 -33 25 -96 38 -102 22 -111 26 -98
51 5 11 12 37 13 59 3 30 0 40 -11 40 -10 0 -16 -13 -18 -42 -2 -29 -8 -43
-18 -43 -10 0 -14 14 -14 54 l0 54 42 0 c50 1 58 -8 58 -65 0 -38 -3 -43 -22
-43 -15 0 -19 -3 -12 -10 8 -8 114 -20 164 -19 8 1 42 0 74 0 42 -1 64 4 77
15 19 17 19 18 33 -81 2 -16 2 47 0 142 -4 163 -3 173 15 183 13 7 22 7 26 0
14 -22 68 -10 95 20 27 30 32 31 132 37 l105 6 15 41 c9 25 12 51 7 66 -6 21
-7 18 -8 -16 -2 -67 -17 -78 -116 -84 -94 -5 -115 0 -115 31 0 32 -44 69 -83
69 -41 0 -56 24 -31 51 16 17 15 18 -14 7 -32 -12 -52 -58 -26 -58 11 0 14
-18 14 -75 0 -68 -2 -75 -20 -75 -18 0 -20 7 -20 58 0 90 -11 162 -25 162 -8
0 -10 -9 -7 -25 5 -28 -7 -32 -38 -13 -16 10 -25 8 -58 -19 -36 -29 -43 -31
-75 -22 -19 5 -43 8 -53 8 -11 -1 -34 -1 -51 -1 -30 2 -33 5 -33 34 0 17 -3
29 -6 26 -3 -3 -5 -24 -6 -46 0 -35 -3 -40 -23 -38 -20 1 -23 7 -23 45 -2 53
-12 69 -12 18z m-674 -38 c10 -17 -13 -36 -27 -22 -12 12 -4 33 11 33 5 0 12
-5 16 -11z m574 -69 c0 -71 -2 -80 -18 -80 -17 0 -19 9 -20 80 -1 73 1 80 19
80 17 0 19 -7 19 -80z m440 1 l0 -79 -37 0 c-48 0 -63 12 -63 53 0 38 21 60
50 52 17 -4 20 0 20 24 0 19 5 29 15 29 12 0 15 -15 15 -79z m-630 49 c25 -25
27 -86 3 -112 -10 -11 -30 -18 -55 -18 l-38 0 0 75 0 75 35 0 c22 0 43 -8 55
-20z m-450 -4 c0 -8 6 -17 13 -20 10 -5 10 -7 0 -12 -15 -7 -18 -74 -3 -74 6
0 10 -4 10 -10 0 -15 -50 -12 -51 3 -1 6 0 25 1 41 1 16 -4 33 -12 38 -10 7
-10 11 -1 14 7 3 9 12 6 20 -3 9 2 14 16 14 12 0 21 -6 21 -14z m-230 -61 c0
-33 4 -45 15 -45 11 0 15 12 15 45 0 33 4 45 15 45 12 0 15 -13 15 -56 l0 -55
-42 3 -43 3 -5 53 c-5 45 -3 52 12 52 15 0 18 -9 18 -45z m168 26 c3 -10 -3
-12 -27 -6 -40 9 -41 -10 0 -24 24 -8 30 -15 27 -33 -2 -19 -10 -24 -41 -26
-27 -2 -39 1 -43 13 -8 21 3 32 18 17 14 -14 38 -16 38 -3 0 5 -13 14 -30 20
-31 10 -35 17 -24 46 8 20 75 17 82 -4z m122 -36 c0 -42 -3 -55 -15 -55 -12 0
-15 13 -15 55 0 42 3 55 15 55 12 0 15 -13 15 -55z m110 40 c18 -21 4 -32 -21
-17 -25 16 -39 8 -39 -23 0 -31 14 -39 39 -23 25 15 38 4 21 -17 -8 -10 -25
-15 -44 -13 -62 6 -60 108 3 108 16 0 34 -7 41 -15z m108 3 c7 -7 12 -22 12
-34 0 -21 -4 -22 -36 -17 -29 5 -36 3 -32 -8 3 -8 17 -14 31 -14 39 0 38 -19
-1 -23 -43 -4 -62 12 -62 52 0 39 15 56 50 56 14 0 31 -5 38 -12z m302 -7 c17
-33 12 -41 -26 -41 -24 0 -34 -4 -31 -12 2 -7 16 -12 31 -11 17 1 26 -2 23
-10 -5 -17 -55 -21 -73 -6 -17 14 -19 70 -2 87 19 19 66 15 78 -7z m158 7 c7
-7 12 -31 12 -55 l0 -43 -39 0 c-65 0 -81 54 -20 67 16 3 29 10 29 15 0 5 -13
7 -30 3 -28 -6 -39 3 -23 18 11 11 58 8 71 -5z m58 -18 c7 -32 24 -31 24 1 0
18 25 37 35 27 9 -9 -43 -141 -59 -150 -25 -14 -43 2 -20 19 16 12 17 18 7 56
-7 23 -15 50 -18 60 -5 12 -2 17 9 17 10 0 19 -11 22 -30z m164 11 c17 -33 12
-41 -26 -41 -24 0 -34 -4 -31 -12 2 -7 16 -12 31 -11 17 1 26 -2 23 -10 -5
-17 -55 -21 -73 -6 -17 14 -19 70 -2 87 19 19 66 15 78 -7z m338 -4 c3 -16 1
-17 -16 -8 -25 13 -42 14 -42 2 0 -5 14 -14 31 -20 24 -8 30 -15 27 -33 -2
-19 -10 -24 -41 -26 -27 -2 -39 1 -43 13 -8 21 3 32 18 17 14 -14 38 -16 38
-3 0 5 -13 14 -30 20 -19 6 -30 17 -30 29 0 27 10 33 50 30 24 -2 36 -8 38
-21z m-173 -54 c1 -11 5 -27 11 -34 27 -35 26 -83 -2 -72 -8 3 -31 -8 -51 -23
-33 -25 -45 -28 -93 -26 -37 2 -60 9 -70 20 -8 10 -23 24 -33 31 -15 12 -17
12 -11 -3 5 -12 0 -16 -19 -16 -14 0 -28 4 -32 9 -7 13 16 62 26 55 5 -3 9 0
9 6 0 7 6 8 18 2 9 -5 57 -9 105 -10 75 -1 91 2 108 19 14 14 17 27 13 45 -5
20 -3 25 7 22 8 -3 14 -14 14 -25z m-743 -96 c-14 -16 -28 -18 -92 -14 -41 3
-124 5 -185 5 -148 -1 -152 -1 -180 6 -33 8 -32 21 4 36 20 8 35 9 48 2 10 -5
38 -7 63 -3 25 4 56 4 70 1 14 -4 36 -3 49 2 15 5 37 4 57 -2 35 -12 59 -5 83
24 11 13 18 11 56 -12 41 -25 42 -28 27 -45z m313 30 c36 -4 87 -35 79 -48 -3
-5 1 -6 9 -3 8 3 18 1 22 -5 3 -7 -2 -11 -14 -11 -10 0 -22 -6 -24 -12 -4 -9
-8 -9 -14 -3 -9 11 -48 14 -58 3 -8 -8 -62 7 -81 23 -7 6 -29 14 -48 19 -31 7
-38 4 -68 -27 -24 -25 -38 -32 -53 -27 -11 3 -61 5 -111 4 -60 -1 -94 2 -99
10 -5 8 12 11 60 9 61 -2 70 0 103 27 20 16 48 34 62 40 22 10 149 10 235 1z
m213 -80 c2 -10 -3 -17 -12 -17 -10 0 -16 9 -16 21 0 24 23 21 28 -4z m232
-56 l0 -79 -30 -4 c-17 -3 -39 2 -50 9 -40 28 -15 112 29 100 18 -4 21 -1 21
24 0 19 5 29 15 29 12 0 15 -15 15 -79z m-530 49 c24 -24 26 -77 4 -108 -12
-17 -25 -22 -60 -22 l-44 0 0 75 0 75 40 0 c27 0 47 -7 60 -20z m-682 -62 c-2
-33 1 -43 12 -43 10 0 16 13 18 43 2 28 8 42 18 42 10 0 14 -14 14 -55 l0 -55
-44 0 c-49 0 -56 8 -56 71 0 32 3 39 20 39 18 0 20 -6 18 -42z m162 27 c16
-19 5 -34 -12 -17 -14 14 -38 16 -38 3 0 -5 14 -14 30 -20 20 -7 30 -17 30
-31 0 -39 -81 -45 -88 -6 -4 17 13 22 23 6 7 -12 35 -14 35 -2 0 4 -13 13 -30
19 -28 11 -40 39 -23 56 12 13 60 7 73 -8z m130 -40 c0 -42 -3 -55 -15 -55
-12 0 -15 13 -15 55 0 42 3 55 15 55 12 0 15 -13 15 -55z m110 35 c9 -17 8
-20 -9 -20 -11 0 -21 5 -23 12 -7 19 -28 -1 -28 -27 0 -30 16 -41 36 -24 17
14 29 6 21 -14 -8 -21 -43 -27 -66 -10 -24 16 -29 71 -9 91 19 19 66 15 78 -8z
m110 1 c21 -39 13 -53 -26 -47 -26 5 -35 3 -31 -6 2 -7 16 -13 30 -13 15 0 28
-4 29 -10 4 -15 -61 -18 -78 -4 -17 14 -19 70 -2 87 19 19 66 15 78 -7z m288
7 c5 -7 12 -22 14 -33 2 -17 -2 -20 -30 -18 -22 1 -32 -2 -29 -10 2 -7 16 -11
31 -10 38 3 28 -21 -11 -25 -18 -2 -35 3 -43 13 -16 19 -16 60 0 80 15 18 54
20 68 3z m182 -43 c0 -42 -3 -55 -15 -55 -12 0 -15 13 -15 55 0 42 3 55 15 55
12 0 15 -13 15 -55z m110 36 c21 -40 13 -54 -26 -48 -25 4 -34 2 -31 -6 2 -7
16 -12 30 -12 31 0 37 -16 9 -26 -32 -12 -67 12 -70 49 -2 18 2 40 9 48 17 21
66 18 79 -5z m-1004 -112 c4 -7 24 -9 53 -5 46 5 46 5 16 -9 -43 -20 -109 -19
-126 3 -13 15 -12 16 2 4 14 -10 18 -10 23 3 6 18 22 20 32 4z"/>
<path d="M2044 486 c-9 -23 0 -51 16 -51 10 0 15 10 15 29 0 32 -21 47 -31 22z"/>
<path d="M1420 481 c0 -28 4 -51 8 -51 45 0 58 92 15 98 -21 3 -23 0 -23 -47z"/>
<path d="M2104 236 c-9 -23 0 -51 16 -51 10 0 15 10 15 29 0 32 -21 47 -31 22z"/>
<path d="M1580 230 c0 -52 8 -60 34 -34 29 28 14 84 -21 84 -9 0 -13 -16 -13
-50z"/>
<path d="M2639 628 c-6 -29 -7 -92 -1 -108 6 -15 8 -1 9 44 0 36 -1 66 -3 66
-2 0 -4 -1 -5 -2z"/>
<path d="M2957 494 c-6 -6 -45 -10 -116 -13 -24 0 -41 -4 -38 -7 9 -10 160 -5
170 5 5 5 4 11 -1 15 -5 3 -12 3 -15 0z"/>
<path d="M2650 476 c0 -13 11 -16 62 -16 70 0 75 7 8 11 -25 1 -51 7 -57 12
-9 7 -13 5 -13 -7z"/>
<path d="M2980 330 c0 -76 -4 -129 -9 -126 -18 12 -213 -11 -223 -25 -7 -11
-11 -11 -15 -1 -7 17 -43 15 -43 -3 0 -20 56 -18 253 10 l37 5 0 -95 c0 -53 4
-95 9 -95 13 0 14 447 1 455 -6 4 -10 -42 -10 -125z"/>
<path d="M2702 383 l-2 -43 55 0 c54 0 55 1 55 29 0 18 -6 31 -17 35 -10 3
-25 9 -33 13 -13 5 -13 4 -1 -11 12 -15 12 -19 -2 -34 -16 -15 -17 -14 -17 11
0 18 -4 26 -11 21 -6 -3 -9 -15 -6 -25 3 -11 1 -19 -3 -19 -5 0 -11 15 -13 33
-3 28 -4 26 -5 -10z"/>
<path d="M740 301 c0 -7 -10 -9 -27 -5 -20 4 -24 3 -14 -4 11 -8 11 -10 0 -15
-8 -4 4 -4 26 0 49 7 49 7 30 23 -10 9 -15 9 -15 1z"/>
<path d="M640 291 c0 -5 -10 -11 -22 -14 -43 -11 -61 -31 -53 -58 l8 -24 8 23
c5 14 20 25 40 29 20 4 26 8 18 14 -9 5 -4 10 15 15 20 5 24 9 14 15 -17 11
-28 11 -28 0z"/>
<path d="M757 243 c-4 -4 -5 -23 -3 -42 3 -20 3 -28 0 -18 -3 9 -10 17 -15 17
-4 0 -4 -11 2 -24 12 -26 40 -35 79 -26 20 5 22 7 8 12 -9 4 -26 25 -38 48
-22 43 -23 44 -33 33z"/>
<path d="M2210 212 c0 -14 124 -50 182 -53 69 -4 70 8 1 16 -49 6 -115 22
-170 43 -7 2 -13 0 -13 -6z"/>
<path d="M2649 186 c-6 -5 -105 -15 -151 -16 -49 0 -49 -15 -1 -27 42 -10 164
5 175 21 11 16 -9 35 -23 22z"/>
<path d="M525 160 c-17 -19 -17 -20 1 -20 19 1 54 22 54 34 0 14 -38 5 -55
-14z"/>
<path d="M444 136 c-11 -8 -62 -23 -114 -33 -90 -17 -92 -18 -47 -21 27 -2 70
3 98 11 33 10 49 11 49 4 0 -6 6 -2 14 9 8 10 19 20 25 20 6 1 16 2 22 3 14 1
1 21 -14 21 -7 0 -22 -6 -33 -14z"/>
<path d="M705 76 c-18 -7 -25 -15 -18 -19 6 -4 14 -3 18 3 3 5 17 10 31 10 14
0 22 4 19 10 -8 13 -13 12 -50 -4z"/>
<path d="M618 69 c-25 -14 -22 -29 5 -29 16 0 23 6 23 20 0 23 -4 24 -28 9z"/>
<path d="M2560 74 c0 -8 32 -33 42 -34 4 0 5 6 2 14 -4 10 3 16 23 19 18 3 11
5 -19 6 -27 0 -48 -2 -48 -5z"/>
<path d="M2665 70 c4 -6 -6 -10 -22 -10 -22 0 -25 -2 -13 -10 23 -15 57 -12
64 6 9 23 8 24 -15 24 -11 0 -17 -4 -14 -10z"/>
<path d="M869 61 c11 -7 11 -9 0 -14 -9 -3 -2 -10 19 -19 18 -8 29 -17 25 -21
-3 -4 -1 -7 5 -7 19 0 23 18 7 32 -34 31 -45 38 -57 38 -10 0 -10 -2 1 -9z"/>
<path d="M2046 63 c-7 -7 5 -33 16 -33 5 0 6 6 2 13 -6 9 -4 9 7 1 31 -25 150
-42 127 -18 -9 9 -146 42 -152 37z"/>
<path d="M520 44 l-35 -12 50 -4 c28 -2 51 -4 53 -3 1 1 -6 8 -15 17 -15 12
-24 12 -53 2z"/>
<path d="M2843 47 c6 -17 -13 -24 -27 -10 -4 4 -18 9 -32 11 -18 2 -24 -1 -18
-9 4 -8 3 -9 -4 -5 -7 4 -19 3 -28 -2 -14 -8 -12 -10 12 -16 16 -4 30 -3 32 2
3 10 59 1 80 -12 22 -13 22 14 1 35 -16 16 -21 18 -16 6z"/>
<path d="M2443 33 c-7 -2 -13 -12 -12 -21 0 -11 2 -12 6 -4 3 9 18 11 51 6 26
-3 58 -1 72 5 22 8 18 10 -27 10 -28 1 -57 3 -65 5 -7 3 -19 2 -25 -1z"/>
<path d="M1931 10 c-7 -4 10 -8 40 -9 28 0 49 2 46 6 -10 9 -72 12 -86 3z"/>
<path d="M2225 10 c3 -5 27 -9 53 -9 42 1 44 2 17 9 -45 11 -77 11 -70 0z"/>
</g>
</svg>
