<?xml version="1.0" standalone="no"?>
<!DOCTYPE svg PUBLIC "-//W3C//DTD SVG 20010904//EN"
 "http://www.w3.org/TR/2001/REC-SVG-20010904/DTD/svg10.dtd">
<svg version="1.0" xmlns="http://www.w3.org/2000/svg"
 width="300.000000pt" height="204.000000pt" viewBox="0 0 300.000000 204.000000"
 preserveAspectRatio="xMidYMid meet">
<metadata>
Created by potrace 1.10, written by Peter Selinger 2001-2011
</metadata>
<g transform="translate(0.000000,204.000000) scale(0.100000,-0.100000)"
fill="#000000" stroke="none">
<path d="M290 2012 c0 -9 18 -12 65 -11 83 2 80 20 -3 22 -45 2 -62 -2 -62
-11z"/>
<path d="M444 2018 c-8 -13 12 -16 79 -15 92 1 89 22 -4 22 -39 0 -73 -3 -75
-7z"/>
<path d="M601 2018 c-1 -13 7 -18 29 -18 17 0 30 5 30 11 0 7 -10 9 -25 7 -13
-3 -26 0 -29 6 -2 6 -5 3 -5 -6z"/>
<path d="M294 1971 c-12 -13 0 -19 41 -19 25 -1 45 3 45 7 0 9 -78 20 -86 12z"/>
<path d="M400 1963 c0 -12 15 -14 72 -11 41 2 73 8 75 14 3 8 -6 10 -29 5 -18
-4 -52 -4 -75 -1 -34 5 -43 4 -43 -7z"/>
<path d="M560 1965 c0 -10 11 -15 36 -15 22 0 33 4 29 11 -4 6 -9 8 -12 5 -3
-2 -16 -1 -29 4 -19 7 -24 6 -24 -5z"/>
<path d="M640 1963 c0 -7 20 -12 56 -12 67 0 60 15 -8 21 -32 2 -48 -1 -48 -9z"/>
<path d="M773 1967 c-9 -15 5 -19 49 -18 24 2 51 2 61 2 10 0 17 5 15 11 -4
12 -118 17 -125 5z"/>
<path d="M931 1969 c-1 -10 9 -19 24 -21 14 -3 25 -2 25 2 0 3 16 5 35 4 20
-2 35 1 35 7 0 7 -21 10 -55 7 -31 -1 -57 1 -59 7 -3 6 -5 3 -5 -6z"/>
<path d="M334 1871 c-13 -13 3 -18 60 -17 35 1 68 4 72 9 4 4 1 7 -7 7 -8 1
-38 2 -67 3 -29 1 -55 0 -58 -2z"/>
<path d="M560 1862 c0 -8 12 -12 35 -10 19 1 35 7 35 13 0 5 -16 10 -35 10
-22 0 -35 -5 -35 -13z"/>
<path d="M686 1857 c-3 -11 0 -15 7 -10 17 11 49 11 70 1 9 -5 17 -5 17 -1 0
4 31 7 69 6 46 -1 71 2 74 10 3 9 -27 12 -114 12 -104 0 -119 -2 -123 -18z"/>
<path d="M1003 1873 c-83 -5 -81 -19 2 -19 47 0 65 3 65 13 0 7 -1 12 -2 11
-2 -1 -31 -3 -65 -5z"/>
<path d="M1128 1872 c-57 -7 -25 -19 47 -19 47 -1 75 3 73 9 -4 11 -69 16
-120 10z"/>
<path d="M323 1822 c-55 -5 -37 -23 21 -21 36 1 53 6 50 13 -5 12 -16 13 -71
8z"/>
<path d="M530 1813 c0 -7 19 -11 55 -11 71 1 71 15 0 20 -37 2 -55 -1 -55 -9z"/>
<path d="M657 1816 c-5 -13 2 -16 31 -17 20 -1 40 -1 43 -1 4 1 23 2 43 4 59
4 41 18 -23 18 -33 0 -66 3 -74 6 -8 3 -17 -2 -20 -10z"/>
<path d="M821 1819 c-1 -12 10 -18 38 -21 31 -3 38 0 34 12 -3 10 1 8 11 -4
16 -19 16 -19 16 2 0 24 -19 29 -38 10 -9 -9 -12 -9 -12 0 0 9 -5 10 -19 2
-14 -7 -21 -6 -24 3 -4 7 -6 6 -6 -4z"/>
<path d="M381 1769 c-1 -20 36 -29 68 -17 13 4 35 5 49 2 23 -5 25 -4 9 6 -10
7 -41 10 -68 8 -27 -1 -51 2 -53 7 -3 6 -5 3 -5 -6z"/>
<path d="M530 1766 c0 -13 11 -16 53 -14 28 1 58 -1 64 -5 9 -6 11 -3 7 7 -3
9 -1 16 5 16 6 0 11 -4 11 -10 0 -5 7 -10 15 -10 8 0 15 6 15 14 0 11 -9 13
-37 10 -46 -6 -92 -5 -115 2 -12 3 -18 0 -18 -10z"/>
<path d="M790 1771 c0 -5 -9 -7 -20 -4 -11 3 -20 0 -20 -6 0 -6 13 -10 30 -9
27 2 45 28 20 28 -5 0 -10 -4 -10 -9z"/>
<path d="M863 1773 c-33 -6 -28 -18 7 -21 23 -2 28 1 24 13 -4 8 -7 14 -8 14
0 -1 -11 -4 -23 -6z"/>
<path d="M910 1762 c0 -15 58 -14 78 2 8 6 16 6 20 0 10 -13 42 -17 42 -4 0 5
-10 10 -22 11 -101 4 -118 3 -118 -9z"/>
<path d="M1170 1761 c0 -7 6 -11 15 -8 8 4 16 3 19 -1 6 -11 181 -6 202 6 14
8 6 11 -34 13 -29 2 -52 0 -52 -4 0 -5 -4 -5 -10 -2 -5 3 -10 1 -10 -4 0 -6
-7 -11 -15 -11 -8 0 -15 6 -15 13 0 8 -16 12 -50 12 -35 0 -50 -4 -50 -14z"/>
<path d="M1450 1765 c0 -8 5 -16 10 -16 37 -5 45 -2 47 16 3 19 2 19 -5 1 -8
-17 -9 -17 -24 -2 -21 20 -28 20 -28 1z"/>
<path d="M381 1719 c-1 -17 45 -33 54 -18 3 4 23 6 45 4 33 -4 38 -2 28 9 -12
12 -73 13 -105 1 -6 -2 -14 1 -17 8 -2 7 -5 5 -5 -4z"/>
<path d="M530 1715 c0 -10 15 -14 60 -12 33 1 60 5 60 9 0 4 -10 7 -22 7 -13
0 -40 2 -60 4 -28 4 -38 1 -38 -8z"/>
<path d="M730 1715 c0 -11 8 -15 28 -13 16 1 29 8 29 15 0 7 -4 13 -9 13 -4 0
-8 -5 -8 -10 0 -7 -6 -7 -20 0 -16 9 -20 8 -20 -5z"/>
<path d="M800 1714 c0 -15 144 -15 165 -1 12 10 6 12 -34 12 -27 0 -47 -3 -45
-7 3 -4 0 -8 -5 -8 -6 0 -11 4 -11 8 0 4 -16 7 -35 7 -19 0 -35 -5 -35 -11z"/>
<path d="M381 1669 c-1 -17 45 -33 54 -18 3 4 23 6 45 4 32 -4 38 -2 28 8 -12
13 -86 16 -105 4 -6 -4 -14 -1 -16 5 -4 8 -6 7 -6 -3z"/>
<path d="M530 1666 c0 -8 25 -12 75 -12 62 -1 75 2 75 15 0 13 -2 13 -9 2 -5
-8 -14 -10 -22 -6 -21 14 -119 14 -119 1z"/>
<path d="M730 1662 c0 -7 11 -11 28 -10 16 1 29 8 29 14 0 8 -12 12 -29 11
-15 -1 -28 -8 -28 -15z"/>
<path d="M800 1664 c0 -15 155 -13 170 2 7 7 -18 10 -80 9 -60 0 -90 -4 -90
-11z"/>
<path d="M990 1662 c0 -16 51 -13 62 3 5 6 8 5 8 -2 0 -8 15 -13 40 -13 22 0
40 5 40 10 0 12 -4 12 -87 14 -47 1 -63 -2 -63 -12z"/>
<path d="M380 1532 c0 -4 -20 -7 -45 -6 -31 1 -45 -2 -45 -11 0 -9 16 -13 53
-12 46 1 53 4 49 19 -4 18 -12 24 -12 10z"/>
<path d="M536 1526 c3 -9 1 -16 -5 -16 -6 0 -11 4 -11 9 0 12 -93 8 -97 -5 -2
-6 26 -10 72 -11 63 -2 75 0 75 14 0 9 -3 13 -7 10 -3 -4 -12 -2 -20 5 -11 8
-12 7 -7 -6z"/>
<path d="M990 1520 c0 -16 6 -20 30 -18 19 1 30 8 30 17 0 8 -3 12 -6 8 -3 -3
-17 -2 -30 3 -20 8 -24 6 -24 -10z"/>
<path d="M1473 1532 c-34 -5 -29 -32 7 -34 17 -1 37 -2 47 -2 9 -1 17 7 19 17
1 9 -2 15 -7 11 -5 -3 -7 -10 -4 -15 4 -5 -1 -9 -9 -9 -9 0 -16 6 -16 14 0 19
-9 23 -37 18z"/>
<path d="M2040 1531 c0 -4 -25 -7 -55 -5 -46 2 -55 -1 -55 -14 0 -15 2 -15 10
-2 7 11 10 12 10 2 0 -10 11 -12 42 -8 28 4 44 2 50 -7 5 -7 8 -2 8 16 0 15
-2 27 -5 27 -3 0 -5 -4 -5 -9z"/>
<path d="M2280 1515 c0 -18 4 -22 20 -18 25 7 23 35 -2 39 -13 1 -18 -5 -18
-21z"/>
<path d="M580 1514 c0 -6 29 -11 70 -12 52 -2 70 1 70 11 0 7 -11 13 -25 13
-14 0 -25 -4 -25 -8 0 -4 -5 -8 -11 -8 -5 0 -7 4 -4 10 4 6 -10 9 -35 7 -22
-1 -40 -7 -40 -13z"/>
<path d="M730 1513 c0 -15 2 -16 10 -3 6 10 10 11 10 3 0 -7 7 -13 15 -13 8 0
15 4 15 10 0 5 7 7 15 4 8 -4 15 -2 15 3 0 5 -18 10 -40 11 -33 2 -40 0 -40
-15z"/>
<path d="M840 1515 c0 -6 18 -12 40 -13 30 -2 40 1 40 12 0 11 -11 14 -40 13
-22 -1 -40 -6 -40 -12z"/>
<path d="M1120 1514 c0 -14 36 -19 64 -8 28 11 17 19 -24 20 -27 1 -40 -3 -40
-12z"/>
<path d="M1210 1515 c0 -7 6 -12 13 -12 6 0 19 -3 27 -5 8 -3 12 -3 8 -1 -5 3
-8 11 -8 18 0 8 -9 13 -20 12 -11 -1 -20 -6 -20 -12z"/>
<path d="M1275 1520 c-7 -11 10 -19 38 -17 21 1 23 24 2 24 -8 0 -15 -4 -15
-9 0 -4 -5 -8 -11 -8 -5 0 -7 5 -4 10 3 6 4 10 1 10 -3 0 -8 -5 -11 -10z"/>
<path d="M1340 1512 c0 -7 5 -10 10 -7 6 3 10 1 10 -4 0 -16 15 -13 40 7 22
18 22 18 -19 17 -27 0 -41 -4 -41 -13z"/>
<path d="M1560 1518 c0 -17 90 -21 106 -5 4 4 13 2 21 -4 10 -9 13 -8 13 2 0
11 -17 14 -70 15 -38 0 -70 -4 -70 -8z"/>
<path d="M1736 1523 c-12 -12 -5 -21 19 -25 23 -5 44 7 32 18 -8 8 -45 13 -51
7z"/>
<path d="M1860 1514 c0 -8 9 -14 20 -14 11 0 20 6 20 13 0 7 -9 13 -20 14 -11
1 -20 -4 -20 -13z"/>
<path d="M2085 1521 c-13 -13 0 -18 42 -17 60 1 67 21 8 21 -25 1 -48 -1 -50
-4z"/>
<path d="M2190 1515 c0 -8 9 -15 20 -15 11 0 23 0 28 0 13 0 7 23 -8 28 -13 5
-13 3 0 -14 14 -18 14 -18 -6 -1 -25 21 -34 22 -34 2z"/>
<path d="M337 1434 c-20 -20 -5 -32 38 -30 25 1 45 -2 45 -8 0 -6 5 -5 12 2 6
6 9 14 6 18 -11 10 -58 12 -64 2 -3 -5 -11 -2 -18 7 -6 9 -15 13 -19 9z"/>
<path d="M464 1418 c-3 -4 1 -10 8 -12 23 -8 47 -3 52 10 6 14 -51 17 -60 2z"/>
<path d="M767 1383 c-3 -5 -28 -8 -56 -7 -28 1 -51 -2 -51 -7 0 -5 6 -9 13
-10 122 -8 133 -7 134 15 1 11 -1 15 -4 8 -4 -9 -8 -10 -18 -2 -7 6 -15 7 -18
3z"/>
<path d="M878 1383 c-25 -6 -23 -29 2 -29 13 0 20 7 20 18 0 10 -1 17 -2 17
-2 -1 -11 -3 -20 -6z"/>
<path d="M970 1381 c0 -7 -4 -10 -9 -6 -5 3 -12 1 -16 -5 -3 -5 0 -10 7 -11 7
0 23 -2 36 -5 23 -4 32 19 12 31 -6 4 -7 -1 -4 -12 5 -16 4 -16 -10 1 -9 11
-16 14 -16 7z"/>
<path d="M290 1364 c0 -7 9 -12 20 -11 11 1 20 6 20 12 0 5 5 3 10 -5 8 -13
10 -13 10 2 0 12 -8 16 -30 16 -17 -1 -30 -6 -30 -14z"/>
<path d="M536 1372 c-14 -14 -2 -18 46 -17 67 1 76 22 9 22 -27 1 -52 -2 -55
-5z"/>
<path d="M294 1322 c0 -14 11 -17 63 -18 48 -1 63 2 63 12 0 17 -20 19 -21 2
0 -7 -4 -4 -9 7 -5 11 -9 15 -9 9 -1 -10 -60 -12 -77 -1 -5 3 -10 -2 -10 -11z"/>
<path d="M777 1334 c-3 -5 3 -15 13 -22 12 -7 21 -8 25 -2 4 6 15 6 30 0 20
-8 25 -6 25 6 0 13 -8 15 -40 11 -23 -2 -41 0 -43 6 -2 7 -5 8 -10 1z"/>
<path d="M923 1333 c-27 -9 -12 -29 21 -29 27 0 33 3 26 15 -8 15 -27 21 -47
14z"/>
<path d="M1200 1330 c-18 -11 -10 -19 24 -26 25 -4 26 -4 9 16 -10 11 -18 20
-18 20 0 0 -7 -4 -15 -10z"/>
<path d="M1428 1335 c-3 -3 -39 -6 -81 -6 -71 -1 -92 -8 -67 -24 6 -3 10 0 10
7 0 9 3 9 10 -2 9 -13 10 -13 10 0 0 9 3 11 8 4 7 -11 62 -11 80 0 6 3 13 0
15 -6 4 -10 6 -10 6 0 1 7 5 11 10 8 5 -3 11 1 15 9 5 14 -5 21 -16 10z"/>
<path d="M1543 1324 c1 -16 7 -21 27 -20 28 1 35 28 7 32 -9 1 -15 -2 -11 -7
3 -5 1 -9 -5 -9 -5 0 -11 6 -14 13 -3 6 -5 3 -4 -9z"/>
<path d="M550 1318 c0 -5 3 -7 8 -7 4 1 9 0 12 -1 3 -1 29 -2 58 -4 36 -1 52
2 52 11 0 9 -18 12 -65 10 -36 -1 -65 -5 -65 -9z"/>
<path d="M705 1320 c-11 -5 -15 -9 -10 -10 60 -8 73 -7 68 6 -6 16 -28 17 -58
4z"/>
<path d="M1050 1321 c0 -12 2 -12 68 -14 24 -1 42 3 42 9 0 6 -24 12 -55 13
-33 1 -55 -2 -55 -8z"/>
<path d="M1473 1313 c0 -15 7 -16 27 -3 9 6 17 5 22 -3 5 -8 8 -6 8 6 0 13 -7
17 -28 15 -16 -1 -29 -8 -29 -15z"/>
<path d="M340 1221 c0 -14 1 -14 10 -1 7 11 10 11 10 2 0 -7 5 -10 10 -7 6 3
10 1 10 -6 0 -10 3 -10 12 -1 14 14 32 16 23 2 -3 -6 1 -7 9 -4 16 6 22 24 9
25 -84 6 -93 5 -93 -10z"/>
<path d="M550 1218 c0 -4 6 -8 13 -9 64 -6 87 -4 87 6 0 7 -19 12 -50 11 -27
0 -50 -3 -50 -8z"/>
<path d="M380 1182 c0 -5 -20 -7 -45 -5 -32 3 -45 0 -45 -9 0 -9 17 -13 54
-14 47 -1 53 2 48 18 -4 18 -12 25 -12 10z"/>
<path d="M644 1172 c0 -15 11 -18 72 -18 64 -1 71 1 57 14 -13 13 -16 13 -24
1 -7 -11 -9 -10 -9 6 0 17 -2 17 -10 5 -5 -8 -10 -11 -10 -6 0 5 -8 2 -17 -5
-10 -8 -14 -9 -10 -2 4 6 3 14 -2 17 -5 4 -13 2 -16 -4 -5 -7 -11 -8 -19 -1
-8 7 -12 5 -12 -7z"/>
<path d="M899 1186 c-2 -2 -22 -6 -44 -8 -50 -5 -43 -23 8 -23 47 0 66 10 51
25 -6 6 -12 8 -15 6z"/>
<path d="M963 1183 c-7 -3 -13 -9 -13 -14 0 -6 5 -7 10 -4 6 3 10 2 10 -3 0
-5 15 -9 33 -9 17 0 26 2 20 5 -7 2 -13 10 -13 18 0 20 -20 17 -21 -3 0 -16
-1 -16 -7 -2 -4 9 -13 14 -19 12z"/>
<path d="M1052 1174 c3 -16 12 -19 53 -19 28 0 55 -3 60 -7 6 -4 17 -3 24 1 7
4 24 6 38 3 20 -4 24 -2 18 9 -7 11 -5 12 6 4 16 -12 73 -13 77 -2 1 4 2 11 2
15 0 13 -94 2 -102 -12 -5 -7 -8 -3 -9 9 0 11 -3 14 -6 7 -2 -6 -9 -10 -14 -6
-5 3 -9 0 -9 -5 0 -16 -27 -13 -33 2 -6 16 -63 11 -86 -7 -11 -8 -13 -8 -8 1
4 6 2 15 -4 18 -7 5 -10 0 -7 -11z"/>
<path d="M510 1166 c0 -8 17 -12 50 -12 33 0 46 4 39 11 -15 15 -89 16 -89 1z"/>
<path d="M1403 1103 c37 -2 96 -2 130 0 34 2 4 3 -68 3 -71 0 -99 -1 -62 -3z"/>
<path d="M1653 1103 c31 -2 83 -2 115 0 31 2 5 3 -58 3 -63 0 -89 -1 -57 -3z"/>
<path d="M1878 1103 c29 -2 74 -2 100 0 26 2 2 3 -53 3 -55 0 -76 -1 -47 -3z"/>
<path d="M2163 1103 c76 -2 198 -2 270 0 73 1 11 3 -138 3 -148 0 -208 -2
-132 -3z"/>
<path d="M2673 1103 c59 -2 155 -2 215 0 59 1 10 3 -108 3 -118 0 -167 -2
-107 -3z"/>
<path d="M240 1065 c0 -9 4 -14 9 -11 5 4 11 2 13 -3 4 -12 58 -2 58 10 0 5
-11 9 -24 9 -13 0 -31 3 -40 6 -11 4 -16 1 -16 -11z"/>
<path d="M407 1073 c-4 -3 -7 -11 -7 -17 0 -6 5 -4 10 4 6 10 10 11 10 3 0 -7
9 -13 20 -13 11 0 20 7 20 15 0 18 -16 20 -23 3 -4 -10 -6 -10 -6 0 -1 13 -14
16 -24 5z"/>
<path d="M243 1015 c0 -19 53 -21 60 -2 4 10 6 10 6 0 1 -18 41 -16 41 2 0 8
-4 15 -10 15 -5 0 -10 -6 -10 -12 0 -9 -3 -9 -9 1 -8 12 -12 12 -25 2 -13 -11
-16 -11 -16 0 0 11 -2 11 -10 -1 -6 -10 -10 -11 -10 -2 0 6 -4 12 -8 12 -5 0
-9 -7 -9 -15z"/>
<path d="M900 1013 c0 -8 12 -13 30 -13 17 0 33 0 38 -1 4 0 8 8 9 18 2 15 1
15 -6 -2 -5 -11 -10 -15 -10 -9 -1 17 -61 24 -61 7z"/>
<path d="M1011 1018 c-1 -12 6 -18 19 -18 11 0 23 0 27 -1 4 0 9 5 12 12 2 8
-5 10 -22 7 -15 -3 -28 0 -31 6 -2 6 -5 3 -5 -6z"/>
<path d="M1403 1014 c0 -10 12 -14 44 -12 43 1 57 13 27 25 -9 3 -20 0 -25 -8
-5 -8 -9 -9 -9 -4 0 6 -8 11 -18 12 -10 1 -19 -5 -19 -13z"/>
<path d="M1553 1015 c0 -11 13 -15 54 -15 29 0 53 4 53 10 0 5 -15 9 -32 8
-18 0 -42 2 -54 6 -15 4 -21 2 -21 -9z"/>
<path d="M1721 1016 c-8 -9 -1 -13 29 -14 27 -2 40 1 40 10 0 9 3 9 10 -2 8
-13 10 -13 10 1 0 13 -10 17 -39 17 -22 0 -44 -5 -50 -12z"/>
<path d="M478 1013 c61 -2 163 -2 225 0 61 1 11 3 -113 3 -124 0 -174 -2 -112
-3z"/>
<path d="M1140 1009 c0 -7 26 -9 75 -7 41 2 75 -1 75 -5 0 -5 5 -5 10 -2 27
17 2 25 -75 25 -54 0 -85 -4 -85 -11z"/>
<path d="M240 967 c0 -19 15 -24 52 -19 34 5 37 22 4 22 -13 0 -31 3 -40 6
-10 4 -16 1 -16 -9z"/>
<path d="M407 973 c-4 -3 -7 -11 -7 -17 0 -6 5 -4 10 4 6 10 10 11 10 3 0 -7
9 -13 20 -13 11 0 20 7 20 15 0 18 -16 20 -23 3 -4 -10 -6 -10 -6 0 -1 13 -14
16 -24 5z"/>
<path d="M243 915 c0 -19 53 -21 60 -2 4 10 6 10 6 0 1 -18 41 -16 41 2 0 8
-4 15 -10 15 -5 0 -10 -6 -10 -12 0 -9 -3 -9 -9 1 -8 12 -12 12 -25 2 -13 -11
-16 -11 -16 0 0 11 -2 11 -10 -1 -6 -10 -10 -11 -10 -2 0 6 -4 12 -8 12 -5 0
-9 -7 -9 -15z"/>
<path d="M900 913 c0 -8 12 -13 30 -13 17 0 33 0 38 -1 4 0 8 8 9 18 2 15 1
15 -6 -2 -5 -11 -10 -15 -10 -9 -1 17 -61 24 -61 7z"/>
<path d="M1403 915 c0 -16 27 -16 39 0 5 6 8 5 8 -2 0 -7 9 -13 20 -13 36 0
10 26 -29 28 -28 2 -38 -1 -38 -13z"/>
<path d="M1556 915 c4 -11 21 -15 55 -15 27 0 49 4 49 9 0 5 -12 8 -27 8 -16
-1 -40 2 -55 6 -22 6 -26 4 -22 -8z"/>
<path d="M478 913 c61 -2 163 -2 225 0 61 1 11 3 -113 3 -124 0 -174 -2 -112
-3z"/>
<path d="M1140 910 c0 -5 33 -8 75 -7 41 1 75 -2 75 -6 0 -5 5 -5 10 -2 27 17
2 25 -75 25 -47 0 -85 -4 -85 -10z"/>
<path d="M240 867 c0 -19 15 -24 52 -19 34 5 37 22 4 22 -13 0 -31 3 -40 6
-10 4 -16 1 -16 -9z"/>
<path d="M407 873 c-4 -3 -7 -11 -7 -17 0 -6 5 -4 10 4 6 10 10 11 10 3 0 -7
9 -13 20 -13 11 0 20 7 20 15 0 18 -16 20 -23 3 -4 -10 -6 -10 -6 0 -1 13 -14
16 -24 5z"/>
<path d="M297 823 c-4 -3 -7 -11 -7 -17 0 -6 5 -4 10 4 6 10 10 11 10 3 0 -7
9 -13 20 -13 11 0 20 7 20 15 0 18 -16 20 -23 3 -4 -10 -6 -10 -6 0 -1 13 -14
16 -24 5z"/>
<path d="M900 817 c0 -7 11 -14 25 -15 13 -1 30 -3 36 -4 7 -2 14 6 16 17 1
11 0 15 -3 8 -4 -8 -15 -9 -37 -2 -40 11 -37 11 -37 -4z"/>
<path d="M1011 818 c-1 -12 6 -18 19 -18 11 0 23 0 27 -1 4 0 9 5 12 12 2 8
-5 10 -22 7 -15 -3 -28 0 -31 6 -2 6 -5 3 -5 -6z"/>
<path d="M1400 813 c0 -17 37 -17 43 0 4 10 6 10 6 0 1 -19 41 -16 41 2 0 12
-11 15 -45 13 -30 -1 -45 -6 -45 -15z"/>
<path d="M1553 815 c0 -11 13 -15 54 -15 29 0 53 4 53 10 0 5 -15 9 -32 8 -18
0 -42 2 -54 6 -15 4 -21 2 -21 -9z"/>
<path d="M1722 817 c-9 -10 -3 -13 24 -15 25 -2 33 1 29 9 -6 8 -2 8 13 0 20
-11 39 -1 25 13 -12 11 -80 6 -91 -7z"/>
<path d="M478 813 c61 -2 163 -2 225 0 61 1 11 3 -113 3 -124 0 -174 -2 -112
-3z"/>
<path d="M1140 810 c0 -6 28 -10 68 -9 37 1 73 -1 81 -2 7 -2 16 2 18 9 4 9
-17 12 -81 12 -52 0 -86 -4 -86 -10z"/>
<path d="M240 766 c0 -12 10 -16 40 -16 22 0 40 5 40 10 0 6 -11 10 -24 10
-13 0 -31 3 -40 6 -11 4 -16 1 -16 -10z"/>
<path d="M376 772 c-4 -7 0 -15 9 -19 10 -3 21 0 26 8 6 10 9 10 9 2 0 -7 9
-13 20 -13 11 0 20 7 20 15 0 8 -4 15 -10 15 -5 0 -10 -6 -10 -12 0 -9 -3 -9
-9 1 -8 12 -12 12 -24 2 -12 -9 -16 -9 -19 1 -3 9 -6 9 -12 0z"/>
<path d="M243 715 c0 -19 53 -21 60 -2 4 10 6 10 6 0 1 -18 41 -16 41 2 0 8
-4 15 -10 15 -5 0 -10 -6 -10 -12 0 -9 -3 -9 -9 1 -8 12 -12 12 -25 2 -13 -11
-16 -11 -16 0 0 11 -2 11 -10 -1 -6 -10 -10 -11 -10 -2 0 6 -4 12 -8 12 -5 0
-9 -7 -9 -15z"/>
<path d="M900 717 c0 -7 11 -14 25 -15 13 -1 30 -3 36 -4 7 -2 14 4 14 12 2
11 1 12 -3 1 -2 -8 -7 -10 -11 -4 -10 17 -61 25 -61 10z"/>
<path d="M1011 718 c-1 -12 6 -18 19 -18 11 0 23 0 27 -1 4 0 9 5 12 12 2 8
-5 10 -22 7 -15 -3 -28 0 -31 6 -2 6 -5 3 -5 -6z"/>
<path d="M1400 714 c0 -9 11 -14 30 -14 22 0 30 5 30 18 0 14 -2 15 -10 2 -5
-8 -10 -10 -10 -5 0 6 -9 11 -20 12 -11 1 -20 -4 -20 -13z"/>
<path d="M1553 715 c0 -11 13 -15 54 -15 29 0 53 4 53 10 0 5 -15 9 -32 8 -18
0 -42 2 -54 6 -15 4 -21 2 -21 -9z"/>
<path d="M1722 717 c-8 -10 -5 -13 14 -15 17 -1 23 2 18 11 -5 9 -4 9 7 0 18
-18 49 -16 49 2 0 19 -73 21 -88 2z"/>
<path d="M478 713 c61 -2 163 -2 225 0 61 1 11 3 -113 3 -124 0 -174 -2 -112
-3z"/>
<path d="M1140 710 c0 -6 28 -10 68 -9 37 1 73 -1 81 -2 7 -2 16 2 18 9 4 9
-17 12 -81 12 -52 0 -86 -4 -86 -10z"/>
<path d="M240 666 c0 -12 10 -16 40 -16 22 0 40 5 40 10 0 6 -11 10 -24 10
-13 0 -31 3 -40 6 -11 4 -16 1 -16 -10z"/>
<path d="M407 673 c-4 -3 -7 -11 -7 -17 0 -6 5 -4 10 4 6 10 10 11 10 3 0 -7
9 -13 20 -13 11 0 20 7 20 15 0 18 -16 20 -23 3 -4 -10 -6 -10 -6 0 -1 13 -14
16 -24 5z"/>
<path d="M297 623 c-4 -3 -7 -11 -7 -17 0 -6 5 -4 10 4 6 10 10 11 10 3 0 -7
9 -13 20 -13 11 0 20 7 20 15 0 18 -16 20 -23 3 -4 -10 -6 -10 -6 0 -1 13 -14
16 -24 5z"/>
<path d="M830 614 c0 -8 9 -14 20 -14 11 0 20 6 20 13 0 7 -9 13 -20 14 -11 1
-20 -4 -20 -13z"/>
<path d="M900 612 c0 -18 72 -11 77 8 4 13 3 13 -6 0 -6 -8 -11 -10 -11 -5 0
6 -13 10 -30 10 -18 0 -30 -5 -30 -13z"/>
<path d="M1011 618 c-1 -12 6 -18 19 -18 11 0 23 0 28 -1 4 0 8 7 10 16 3 12
-1 13 -22 6 -17 -7 -26 -7 -30 2 -2 7 -5 4 -5 -5z"/>
<path d="M1140 612 c0 -9 19 -12 68 -10 38 1 73 -2 79 -5 13 -8 29 10 19 20
-3 4 -42 7 -86 7 -58 1 -80 -2 -80 -12z"/>
<path d="M1403 615 c0 -8 9 -15 19 -15 10 0 18 7 18 15 0 8 -8 15 -18 15 -10
0 -19 -7 -19 -15z"/>
<path d="M1553 615 c0 -9 18 -13 55 -14 49 0 53 1 36 14 -14 10 -21 10 -26 2
-4 -7 -8 -7 -8 -2 0 6 -13 11 -28 11 -17 1 -29 -4 -29 -11z"/>
<path d="M1722 618 c-9 -11 -6 -14 14 -16 13 -1 24 3 24 8 0 6 5 10 11 10 5 0
8 -4 5 -9 -3 -4 3 -8 14 -7 11 0 21 6 23 11 3 16 -78 18 -91 3z"/>
<path d="M478 613 c61 -2 163 -2 225 0 61 1 11 3 -113 3 -124 0 -174 -2 -112
-3z"/>
<path d="M240 566 c0 -12 10 -16 40 -16 22 0 40 5 40 10 0 6 -11 10 -24 10
-13 0 -31 3 -40 6 -11 4 -16 1 -16 -10z"/>
<path d="M377 574 c-13 -13 -7 -24 12 -24 11 0 22 6 24 13 4 10 6 10 6 0 1
-18 41 -16 41 2 0 8 -4 15 -10 15 -5 0 -10 -6 -10 -12 0 -9 -3 -9 -9 1 -8 12
-12 12 -24 2 -11 -8 -16 -9 -19 -1 -2 6 -7 8 -11 4z"/>
<path d="M297 523 c-4 -3 -7 -11 -7 -17 0 -6 5 -4 10 4 6 10 10 11 10 3 0 -7
9 -13 20 -13 11 0 20 7 20 15 0 18 -16 20 -23 3 -4 -10 -6 -10 -6 0 -1 13 -14
16 -24 5z"/>
<path d="M900 513 c0 -15 2 -16 10 -3 7 12 10 12 10 1 0 -7 6 -11 15 -8 8 4
17 1 21 -5 4 -7 10 -5 16 6 6 10 7 20 4 23 -3 4 -6 1 -6 -5 0 -7 -10 -8 -32
-1 -18 5 -34 9 -35 9 -2 0 -3 -8 -3 -17z"/>
<path d="M1140 515 c0 -12 13 -15 68 -14 37 1 73 0 81 -2 7 -2 15 1 18 7 2 7
-16 11 -48 13 -28 1 -55 4 -60 6 -4 3 -10 1 -14 -5 -4 -7 -12 -7 -26 0 -15 9
-19 7 -19 -5z"/>
<path d="M1400 515 c0 -11 9 -15 30 -13 17 1 30 7 30 13 0 6 -13 12 -30 13
-21 2 -30 -2 -30 -13z"/>
<path d="M1553 514 c0 -10 15 -14 54 -14 37 0 52 4 47 11 -3 6 -15 9 -25 6
-11 -3 -19 -2 -19 2 0 3 -13 7 -28 7 -18 1 -29 -4 -29 -12z"/>
<path d="M1721 517 c-9 -12 -3 -14 39 -14 32 0 50 4 50 11 0 18 -75 20 -89 3z"/>
<path d="M478 513 c61 -2 163 -2 225 0 61 1 11 3 -113 3 -124 0 -174 -2 -112
-3z"/>
<path d="M240 464 c0 -10 11 -13 40 -11 22 1 40 5 40 10 0 4 -3 7 -7 8 -64 7
-73 6 -73 -7z"/>
<path d="M380 462 c0 -15 2 -15 10 -2 9 13 10 13 10 0 0 -13 1 -13 10 0 6 10
10 11 10 3 0 -7 9 -13 20 -13 11 0 20 7 20 15 0 8 -4 15 -10 15 -5 0 -10 -6
-10 -12 0 -9 -3 -9 -8 -3 -12 18 -52 16 -52 -3z"/>
<path d="M902 417 c-1 -17 1 -19 8 -7 7 11 10 12 10 2 0 -19 52 -11 57 8 4 13
3 13 -6 0 -9 -12 -11 -13 -11 -1 0 8 -3 12 -6 8 -3 -3 -16 -2 -28 3 -18 7 -22
4 -24 -13z"/>
<path d="M1451 425 c-1 -17 -3 -17 -11 -5 -9 13 -10 13 -10 0 0 -13 -1 -13
-10 0 -5 8 -12 11 -15 8 -14 -13 7 -28 40 -28 32 0 55 23 35 35 -6 4 -10 -2
-11 -12 0 -16 -1 -16 -9 2 -9 20 -9 20 -9 0z"/>
<path d="M1554 419 c0 -15 6 -19 28 -17 15 1 28 8 28 14 0 7 -8 11 -17 9 -10
-1 -23 1 -28 6 -7 5 -11 0 -11 -12z"/>
<path d="M1720 419 c-7 -12 -6 -17 3 -15 17 2 37 16 37 25 0 15 -31 7 -40 -10z"/>
<path d="M1777 423 c4 -10 2 -14 -5 -9 -6 3 -13 2 -16 -3 -4 -5 7 -9 24 -9 34
1 44 33 11 35 -14 1 -18 -3 -14 -14z"/>
<path d="M243 415 c0 -18 47 -17 59 0 5 6 8 5 8 -2 0 -7 9 -13 20 -13 11 0 20
7 20 15 0 8 -4 15 -10 15 -5 0 -10 -6 -10 -12 0 -10 -2 -10 -9 0 -9 15 -42 13
-53 -3 -5 -6 -8 -5 -8 3 0 6 -4 12 -8 12 -5 0 -9 -7 -9 -15z"/>
<path d="M830 415 c0 -8 9 -15 20 -15 11 0 20 7 20 15 0 8 -9 15 -20 15 -11 0
-20 -7 -20 -15z"/>
<path d="M1030 414 c0 -13 25 -26 34 -17 13 14 5 32 -14 30 -11 -1 -20 -7 -20
-13z"/>
<path d="M1140 415 c0 -12 13 -15 68 -14 37 1 73 0 81 -2 8 -2 16 4 19 13 3
15 -4 17 -56 14 -33 -2 -65 -7 -72 -11 -9 -5 -11 -4 -6 3 5 8 0 12 -13 12 -12
0 -21 -7 -21 -15z"/>
<path d="M478 413 c61 -2 163 -2 225 0 61 1 11 3 -113 3 -124 0 -174 -2 -112
-3z"/>
<path d="M240 364 c0 -10 12 -13 40 -11 22 1 40 5 40 10 0 4 -3 7 -7 8 -5 0
-23 2 -40 3 -23 3 -33 -1 -33 -10z"/>
<path d="M370 365 c0 -18 36 -20 43 -2 4 10 6 10 6 0 1 -18 41 -16 41 2 0 8
-4 15 -10 15 -5 0 -10 -6 -10 -12 0 -9 -3 -9 -9 1 -8 12 -12 12 -25 2 -11 -9
-16 -10 -16 -2 0 6 -4 11 -10 11 -5 0 -10 -7 -10 -15z"/>
<path d="M900 317 c0 -18 2 -19 10 -7 7 11 10 11 10 2 0 -19 52 -11 57 8 4 13
3 13 -6 0 -9 -12 -11 -13 -11 -1 0 8 -3 12 -6 8 -3 -3 -17 -2 -30 3 -21 8 -24
7 -24 -13z"/>
<path d="M297 323 c-4 -3 -7 -11 -7 -17 0 -6 5 -4 10 4 6 10 10 11 10 3 0 -7
9 -13 20 -13 11 0 20 7 20 15 0 18 -16 20 -23 3 -4 -10 -6 -10 -6 0 -1 13 -14
16 -24 5z"/>
<path d="M830 314 c0 -8 9 -14 20 -14 11 0 20 6 20 13 0 7 -9 13 -20 14 -11 1
-20 -4 -20 -13z"/>
<path d="M1030 314 c0 -13 25 -26 34 -17 13 14 5 32 -14 30 -11 -1 -20 -7 -20
-13z"/>
<path d="M1140 312 c0 -9 19 -12 68 -11 37 1 73 0 81 -2 7 -2 16 2 19 10 3 10
0 12 -12 8 -9 -4 -15 -3 -12 1 2 4 -29 8 -70 7 -53 0 -74 -4 -74 -13z"/>
<path d="M1402 318 c7 -19 38 -22 38 -4 0 10 -9 16 -21 16 -12 0 -19 -5 -17
-12z"/>
<path d="M1556 314 c-3 -8 12 -12 50 -13 50 0 53 1 38 16 -13 14 -17 14 -25 2
-5 -8 -9 -9 -9 -3 0 14 -48 13 -54 -2z"/>
<path d="M1722 317 c-9 -10 -1 -13 39 -12 27 0 49 5 49 10 0 15 -75 17 -88 2z"/>
<path d="M478 313 c61 -2 163 -2 225 0 61 1 11 3 -113 3 -124 0 -174 -2 -112
-3z"/>
<path d="M247 283 c-20 -19 -5 -32 33 -30 22 1 40 7 40 13 0 12 -38 13 -57 1
-9 -6 -11 -3 -7 7 6 17 2 21 -9 9z"/>
<path d="M297 223 c-4 -3 -7 -11 -7 -17 0 -6 5 -4 10 4 6 10 10 11 10 3 0 -7
9 -13 20 -13 11 0 20 7 20 15 0 18 -16 20 -23 3 -4 -10 -6 -10 -6 0 -1 13 -14
16 -24 5z"/>
<path d="M830 214 c0 -8 9 -14 20 -14 11 0 20 6 20 13 0 7 -9 13 -20 14 -11 1
-20 -4 -20 -13z"/>
<path d="M900 213 c0 -19 72 -12 77 7 4 13 3 13 -6 0 -6 -8 -11 -10 -11 -4 0
6 -13 10 -30 10 -18 0 -30 -5 -30 -13z"/>
<path d="M1030 214 c0 -14 25 -26 34 -17 13 13 5 29 -14 29 -11 0 -20 -6 -20
-12z"/>
<path d="M1140 212 c0 -9 19 -12 68 -10 38 1 73 -2 79 -5 13 -8 29 10 19 20
-3 4 -42 7 -86 7 -58 1 -80 -2 -80 -12z"/>
<path d="M1430 221 c0 -17 22 -24 31 -10 7 11 9 11 9 1 0 -7 5 -10 10 -7 6 4
8 11 5 16 -8 12 -55 12 -55 0z"/>
<path d="M1556 214 c-3 -8 12 -12 50 -13 50 0 53 1 38 16 -13 14 -17 14 -25 2
-5 -8 -9 -9 -9 -3 0 14 -48 13 -54 -2z"/>
<path d="M1722 217 c-9 -10 -1 -13 40 -12 32 0 53 5 55 13 3 7 -4 12 -16 12
-12 0 -21 -5 -21 -12 0 -9 -3 -9 -12 0 -16 16 -33 15 -46 -1z"/>
<path d="M478 213 c61 -2 163 -2 225 0 61 1 11 3 -113 3 -124 0 -174 -2 -112
-3z"/>
<path d="M247 183 c-20 -19 -5 -32 33 -30 22 1 40 7 40 13 0 12 -38 13 -57 1
-9 -6 -11 -3 -7 7 6 17 2 21 -9 9z"/>
<path d="M393 183 c-7 -3 -13 -10 -13 -18 0 -14 41 -15 52 0 5 6 8 5 8 -2 0
-7 9 -13 20 -13 12 0 20 7 20 16 0 11 -8 15 -28 13 -15 -2 -32 -1 -37 3 -6 3
-16 3 -22 1z"/>
<path d="M250 140 c-10 -35 -7 -41 18 -38 15 2 30 7 34 13 5 6 8 5 8 -2 0 -7
9 -13 20 -13 21 0 28 24 10 35 -5 3 -10 2 -10 -3 0 -12 -43 -10 -52 3 -4 6 -8
1 -9 -10 0 -20 0 -20 -9 0 -5 11 -9 18 -10 15z"/>
<path d="M834 129 c-7 -12 1 -22 21 -25 8 -1 15 4 15 11 0 17 -27 27 -36 14z"/>
<path d="M901 125 c-1 -17 5 -21 36 -20 23 0 38 5 40 15 4 13 3 13 -6 0 -8
-12 -11 -12 -11 -1 0 9 -8 12 -25 9 -13 -3 -26 0 -29 6 -2 6 -5 2 -5 -9z"/>
<path d="M1554 122 c0 -15 9 -18 53 -18 29 0 48 3 42 7 -8 4 -7 8 2 12 8 2 -7
3 -33 2 -27 -1 -48 2 -48 6 0 5 -4 9 -8 9 -4 0 -8 -8 -8 -18z"/>
<path d="M1721 122 c-8 -16 -5 -18 26 -17 19 1 38 8 43 15 6 10 9 9 13 -1 4
-10 6 -9 6 4 1 11 -6 17 -20 17 -11 0 -17 -4 -14 -10 4 -7 -2 -7 -19 0 -21 7
-27 6 -35 -8z"/>
<path d="M375 120 c-4 -7 70 -10 214 -10 141 0 221 4 221 10 0 14 -427 14
-435 0z"/>
<path d="M1030 115 c0 -8 9 -15 20 -15 11 0 20 7 20 15 0 8 -9 15 -20 15 -11
0 -20 -7 -20 -15z"/>
<path d="M1140 114 c0 -8 9 -14 21 -14 11 0 18 4 15 8 -3 5 1 9 9 9 8 0 12 -3
10 -7 -2 -4 15 -7 38 -7 23 0 48 -2 56 -4 8 -2 16 3 18 12 4 15 -7 17 -81 17
-68 0 -86 -3 -86 -14z"/>
<path d="M66 62 c-10 -17 1 -31 22 -27 9 2 20 4 25 4 4 1 7 6 7 13 0 9 -3 9
-12 0 -9 -9 -14 -7 -23 5 -8 11 -14 13 -19 5z"/>
<path d="M291 62 c-6 -2 -11 -9 -11 -15 0 -5 3 -8 6 -4 3 3 17 2 30 -3 15 -6
26 -6 30 1 3 6 11 6 17 1 16 -11 37 -10 37 3 1 10 -89 24 -109 17z"/>
<path d="M591 54 c-1 -18 4 -20 43 -19 24 1 48 5 54 9 6 3 13 0 15 -6 4 -8 6
-7 6 4 1 20 -22 26 -71 17 -24 -4 -39 -2 -42 5 -2 6 -5 2 -5 -10z"/>
<path d="M750 60 c-13 -9 -13 -11 0 -19 15 -10 91 -8 109 3 6 4 11 2 11 -4 0
-6 5 -8 10 -5 25 16 5 25 -50 22 -33 -1 -61 1 -63 5 -1 4 -9 3 -17 -2z"/>
<path d="M1203 46 c-1 -12 1 -15 4 -7 5 11 7 11 14 0 5 -8 9 -9 9 -3 0 7 11 9
25 6 15 -2 25 0 25 7 0 6 -3 10 -7 10 -5 -1 -10 0 -13 1 -3 1 -16 3 -30 4 -20
2 -26 -2 -27 -18z"/>
<path d="M1333 45 c-1 -11 1 -15 3 -9 3 8 16 9 39 4 25 -6 33 -5 28 4 -5 8 -3
8 8 0 8 -6 23 -8 33 -4 30 10 3 22 -58 23 -46 2 -52 0 -53 -18z"/>
<path d="M430 45 c0 -17 16 -20 25 -5 5 8 11 7 21 -1 11 -9 14 -8 14 5 0 11
-9 16 -30 16 -20 0 -30 -5 -30 -15z"/>
<path d="M1000 49 c0 -6 9 -9 20 -6 11 3 20 1 20 -4 0 -5 5 -9 10 -9 6 0 10 7
10 15 0 10 -10 15 -30 15 -16 0 -30 -5 -30 -11z"/>
</g>
</svg>
