<?xml version="1.0" standalone="no"?>
<!DOCTYPE svg PUBLIC "-//W3C//DTD SVG 20010904//EN"
 "http://www.w3.org/TR/2001/REC-SVG-20010904/DTD/svg10.dtd">
<svg version="1.0" xmlns="http://www.w3.org/2000/svg"
 width="300.000000pt" height="150.000000pt" viewBox="0 0 300.000000 150.000000"
 preserveAspectRatio="xMidYMid meet">
<metadata>
Created by potrace 1.10, written by Peter Selinger 2001-2011
</metadata>
<g transform="translate(0.000000,150.000000) scale(0.100000,-0.100000)"
fill="#000000" stroke="none">
<path d="M7 1493 c-9 -8 3 -115 14 -127 5 -6 9 18 9 57 l0 67 100 0 100 0 0
-64 0 -63 -55 -7 c-30 -3 -73 -3 -95 0 -27 4 -40 3 -40 -5 0 -6 -10 -11 -22
-12 l-23 0 22 -11 c28 -14 30 -38 3 -45 -11 -3 -20 -11 -20 -18 0 -21 96 -24
730 -21 327 1 972 3 1433 4 736 2 837 4 837 17 0 13 -98 15 -820 15 -811 0
-819 0 -830 20 -8 15 -8 21 2 25 7 3 382 6 833 8 548 1 357 3 -575 5 -1335 3
-1394 3 -1374 20 16 13 21 30 22 62 1 83 5 80 -127 80 -65 0 -121 -3 -124 -7z
m242 -194 c-13 -24 -35 -24 -49 0 -8 16 -6 20 13 23 36 6 48 -1 36 -23z m374
25 c10 -10 -11 -43 -25 -40 -44 6 -52 46 -10 46 16 0 32 -3 35 -6z m212 -13
c0 -8 -8 -19 -17 -25 -14 -8 -20 -6 -32 9 -8 11 -12 23 -9 28 8 13 58 3 58
-12z m203 -3 c-5 -37 -57 -28 -58 10 0 7 13 12 31 12 26 0 30 -3 27 -22z
m-958 -4 c0 5 6 3 14 -3 10 -8 16 -9 21 -1 9 14 58 7 63 -9 3 -9 -12 -12 -57
-10 -55 2 -61 4 -61 23 0 17 2 18 10 6 5 -8 10 -11 10 -6z m246 6 c20 8 24 6
24 -11 0 -17 -6 -19 -40 -17 -22 1 -40 3 -40 4 0 1 3 10 6 19 5 11 10 13 17 6
6 -6 18 -6 33 -1z m73 -7 c6 -10 11 -12 11 -5 0 19 140 17 140 -2 0 -11 -20
-15 -95 -15 -73 -1 -95 2 -95 12 0 30 24 35 39 10z m315 6 c37 -2 46 -6 46
-21 0 -18 -11 -24 -24 -11 -4 4 -27 6 -51 4 -33 -2 -45 1 -45 12 0 17 10 28
20 22 4 -3 28 -6 54 -6z m214 -12 c7 -6 12 -6 10 -1 -2 5 0 10 5 12 16 5 24 1
24 -13 0 -12 -13 -15 -58 -15 -57 0 -60 2 -50 38 2 5 57 -11 69 -21z m182 9
c22 3 30 -1 30 -12 0 -11 -10 -14 -40 -12 -22 1 -40 7 -40 13 0 16 14 29 18
17 1 -5 16 -8 32 -6z m93 -1 c22 1 36 -3 34 -10 -2 -5 -22 -10 -45 -11 -36 -1
-42 2 -42 20 0 12 4 16 8 11 4 -6 24 -10 45 -10z m100 2 c19 3 27 -1 27 -12 0
-11 -11 -15 -40 -15 -34 0 -40 3 -40 21 0 16 3 19 13 12 6 -6 24 -8 40 -6z"/>
<path d="M83 1458 c-62 -38 -37 -78 47 -78 31 0 61 5 68 12 21 21 13 47 -20
64 -30 15 -32 15 -46 -2 -13 -18 -14 -18 -7 4 8 27 0 27 -42 0z m106 -44 c2
-2 -27 -3 -65 -3 -55 1 -62 3 -34 9 32 6 89 2 99 -6z"/>
<path d="M2588 1474 c-3 -2 -88 -4 -191 -4 -179 -1 -187 -2 -202 -23 -14 -20
-13 -23 9 -45 20 -21 32 -24 87 -23 64 2 144 2 482 1 148 0 181 2 202 16 30
20 31 24 5 52 -19 20 -30 21 -168 22 -81 0 -164 2 -184 4 -20 2 -38 2 -40 0z
m-348 -35 c0 -5 5 -7 10 -4 6 3 10 0 10 -7 0 -9 3 -10 8 -2 10 17 152 18 152
2 0 -9 3 -10 8 -2 4 6 14 11 22 12 8 0 36 3 63 5 42 3 47 1 47 -18 0 -17 -6
-21 -37 -20 -24 0 -41 6 -45 15 -6 13 -7 13 -7 -1 -1 -10 -11 -15 -31 -15 -20
0 -30 5 -31 15 0 13 -2 12 -8 -2 -4 -10 -11 -18 -16 -18 -5 0 -12 8 -16 18 -7
16 -8 16 -8 1 -1 -12 -8 -16 -23 -13 -12 3 -27 0 -34 -6 -9 -7 -19 -7 -31 0
-10 5 -28 9 -38 8 -14 -1 -21 5 -23 21 -2 15 2 22 12 22 9 0 16 -5 16 -11z
m488 1 c17 0 22 -6 22 -25 0 -16 -6 -25 -15 -25 -8 0 -15 4 -15 10 0 6 -28 8
-70 5 -69 -4 -70 -4 -70 20 0 24 1 25 63 20 34 -3 72 -5 85 -5z m107 -1 c11 1
27 2 35 3 8 1 34 0 58 0 33 -2 42 -6 42 -20 0 -14 -9 -17 -58 -17 -32 1 -63 4
-70 9 -7 4 -12 1 -12 -8 0 -9 -4 -16 -10 -16 -5 0 -10 4 -10 9 0 5 -8 8 -17 7
-12 -1 -19 7 -21 23 -3 21 -1 23 20 17 12 -4 32 -7 43 -7z"/>
<path d="M87 1020 c6 -24 19 -26 27 -4 9 23 8 24 -13 24 -14 0 -18 -5 -14 -20z"/>
<path d="M125 1022 c-8 -22 -5 -28 5 -12 6 10 10 11 10 3 0 -7 9 -13 20 -13
12 0 20 7 20 18 0 21 -47 24 -55 4z"/>
<path d="M356 1032 c-3 -5 -1 -14 3 -21 9 -14 42 -12 42 4 1 12 -39 27 -45 17z"/>
<path d="M425 1030 c-11 -18 4 -27 49 -28 30 -1 46 3 50 13 4 10 -1 15 -14 15
-11 0 -20 -5 -20 -11 0 -6 -7 -3 -16 5 -18 18 -40 21 -49 6z"/>
<path d="M540 1030 c0 -5 6 -10 13 -10 8 0 7 -4 -3 -10 -11 -7 -5 -10 23 -10
29 0 37 4 37 18 0 13 -2 14 -9 4 -7 -11 -9 -11 -14 2 -7 17 -47 22 -47 6z"/>
<path d="M800 1030 c-8 -5 -18 -6 -23 -3 -5 3 -13 -1 -18 -8 -6 -10 -9 -11 -9
-1 0 8 -20 12 -65 12 -56 0 -65 -3 -65 -18 0 -15 6 -17 38 -14 20 3 40 10 44
16 6 8 8 7 8 -1 0 -9 16 -13 45 -13 29 0 45 4 45 13 0 7 3 8 8 2 10 -15 62
-16 62 -2 0 7 4 6 10 -3 8 -12 10 -11 10 7 0 19 -3 21 -23 14 -13 -5 -30 -5
-38 -1 -8 5 -21 5 -29 0z"/>
<path d="M910 1020 c0 -16 7 -20 35 -20 30 0 35 3 34 23 0 20 -1 20 -8 3 -7
-18 -8 -18 -14 -3 -9 25 -47 22 -47 -3z"/>
<path d="M1100 1030 c0 -5 6 -10 13 -10 8 0 7 -4 -3 -11 -12 -8 -9 -10 12 -6
15 2 25 0 22 -4 -10 -17 9 -9 22 9 8 10 13 12 14 5 0 -19 20 -16 20 3 0 12 -7
15 -25 12 -14 -3 -28 -1 -31 3 -7 12 -44 11 -44 -1z"/>
<path d="M1211 1023 c-1 -17 5 -23 19 -23 12 0 20 7 20 16 0 10 -6 14 -14 11
-8 -3 -17 -1 -20 6 -2 7 -5 2 -5 -10z"/>
<path d="M190 1016 c0 -12 11 -16 45 -16 29 0 45 4 45 13 0 8 3 8 8 2 9 -14
42 -13 42 0 0 6 -31 11 -70 13 -58 3 -70 1 -70 -12z"/>
<path d="M1020 1013 c0 -14 2 -15 9 -5 7 11 9 11 14 -2 9 -23 37 -20 37 4 0
16 -7 20 -30 20 -22 0 -30 -5 -30 -17z"/>
<path d="M1260 1016 c0 -11 9 -16 26 -16 31 0 28 23 -4 28 -15 2 -22 -2 -22
-12z"/>
<path d="M82 908 c6 -16 55 -21 64 -7 3 6 3 13 -1 17 -3 3 -10 0 -15 -8 -7
-10 -10 -11 -10 -2 0 6 -9 12 -21 12 -12 0 -19 -5 -17 -12z"/>
<path d="M160 905 c0 -12 19 -15 110 -14 77 1 110 5 110 13 0 14 -157 16 -177
3 -8 -5 -13 -4 -13 2 0 6 -7 11 -15 11 -8 0 -15 -7 -15 -15z"/>
<path d="M390 904 c0 -13 8 -15 40 -12 22 2 40 0 40 -4 0 -5 5 -8 10 -8 6 0
10 8 10 18 0 15 -9 19 -50 21 -41 2 -50 -1 -50 -15z"/>
<path d="M507 904 c5 -14 33 -27 33 -16 0 4 20 6 45 4 34 -3 45 -1 45 10 0 12
-15 15 -64 15 -46 -1 -63 -4 -59 -13z"/>
<path d="M683 907 c-3 -5 -3 -10 -2 -11 9 -7 88 -13 94 -8 4 4 12 7 18 7 7 0
13 4 15 10 3 12 -117 14 -125 2z"/>
<path d="M890 904 c0 -10 13 -14 45 -14 62 0 61 24 0 27 -33 1 -45 -2 -45 -13z"/>
<path d="M1007 913 c-14 -14 -6 -20 25 -19 18 1 33 7 36 16 4 13 3 13 -10 2
-11 -9 -18 -10 -23 -2 -7 12 -19 13 -28 3z"/>
<path d="M1080 904 c0 -15 52 -22 98 -13 17 4 35 3 38 -2 7 -12 26 0 21 14 -4
14 -44 19 -52 7 -4 -6 -12 -7 -18 -3 -21 13 -87 10 -87 -3z"/>
<path d="M1250 903 c0 -9 25 -12 90 -11 72 1 90 4 90 16 0 12 -2 12 -17 1 -9
-8 -14 -9 -11 -4 5 7 -20 11 -73 10 -55 0 -79 -4 -79 -12z"/>
<path d="M1450 904 c0 -9 24 -13 81 -13 59 0 79 3 76 12 -5 17 -157 18 -157 1z"/>
<path d="M1620 903 c0 -8 12 -13 30 -13 18 0 30 5 30 13 0 8 -12 13 -30 13
-18 0 -30 -5 -30 -13z"/>
<path d="M1697 913 c-17 -16 -2 -21 62 -21 50 0 68 4 65 13 -3 6 -20 12 -39
12 -22 0 -32 -4 -28 -11 3 -6 0 -5 -8 2 -14 13 -42 16 -52 5z"/>
<path d="M1846 907 c6 -17 144 -21 144 -4 0 8 -24 13 -75 15 -57 1 -73 -1 -69
-11z"/>
<path d="M2018 910 c-7 -3 -14 -10 -15 -16 -3 -14 49 -5 59 10 5 6 8 7 8 1 0
-5 16 -11 35 -12 34 -2 46 9 25 22 -5 3 -10 1 -10 -5 0 -7 -5 -8 -12 -3 -15 9
-70 11 -90 3z"/>
<path d="M2150 903 c0 -9 21 -13 75 -13 56 0 75 3 75 14 0 10 -18 13 -75 12
-53 0 -75 -4 -75 -13z"/>
<path d="M2320 904 c0 -12 9 -15 43 -13 24 2 48 0 54 -4 13 -8 29 10 19 21
-12 11 -40 11 -48 -1 -6 -9 -8 -8 -8 2 0 11 -3 11 -17 0 -15 -12 -16 -12 -8 1
8 13 7 13 -10 0 -11 -9 -16 -10 -11 -2 4 6 2 12 -3 12 -6 0 -11 -7 -11 -16z"/>
<path d="M2490 898 c0 -12 4 -17 12 -12 6 4 43 7 81 6 50 -1 67 2 64 11 -2 8
-30 12 -80 13 -70 1 -77 0 -77 -18z"/>
<path d="M2660 903 c0 -9 14 -13 45 -13 30 0 45 4 45 13 0 9 -15 13 -45 13
-31 1 -45 -4 -45 -13z"/>
<path d="M85 851 c-16 -15 2 -21 57 -19 81 4 88 23 8 24 -33 0 -63 -2 -65 -5z"/>
<path d="M220 842 c0 -8 15 -12 45 -10 25 0 48 -2 51 -5 4 -3 15 -2 25 3 12 7
20 7 24 0 10 -16 27 -11 23 7 -3 15 -16 18 -86 18 -59 0 -82 -3 -82 -13z"/>
<path d="M400 846 c0 -10 9 -16 25 -16 14 0 25 5 25 10 0 6 -4 10 -9 10 -5 0
-16 3 -25 6 -11 4 -16 1 -16 -10z"/>
<path d="M460 844 c0 -9 12 -14 34 -14 19 0 41 -3 50 -6 11 -4 16 0 16 12 0
16 -8 19 -50 20 -36 1 -50 -2 -50 -12z"/>
<path d="M574 851 c-10 -10 -3 -32 8 -25 6 4 38 6 71 5 44 -2 58 1 55 11 -3 8
-25 13 -67 13 -35 0 -65 -2 -67 -4z"/>
<path d="M730 843 c0 -7 11 -13 25 -13 14 0 25 6 25 13 0 6 -11 12 -25 12 -14
0 -25 -6 -25 -12z"/>
<path d="M795 851 c-19 -18 2 -26 65 -23 93 5 97 27 5 27 -36 1 -68 -1 -70 -4z"/>
<path d="M944 851 c-10 -10 -3 -32 8 -25 7 5 41 7 75 6 37 -1 63 2 63 8 0 5
-8 10 -17 11 -103 3 -125 3 -129 0z"/>
<path d="M1150 842 c0 -9 19 -12 65 -11 36 1 65 5 65 10 0 9 -7 10 -83 13 -32
1 -47 -3 -47 -12z"/>
<path d="M1308 852 c-41 -9 -13 -19 57 -20 41 -1 75 2 75 8 0 5 -8 9 -17 9
-10 0 -36 2 -58 4 -22 2 -48 2 -57 -1z"/>
<path d="M1454 851 c-12 -12 0 -19 31 -19 22 0 35 5 35 13 0 12 -55 17 -66 6z"/>
<path d="M1530 843 c0 -8 23 -12 70 -12 48 0 70 4 70 12 0 8 -22 12 -70 12
-47 0 -70 -4 -70 -12z"/>
<path d="M1680 843 c0 -10 18 -13 70 -13 40 0 70 4 70 10 0 6 -8 10 -17 11
-10 0 -42 2 -70 3 -39 2 -53 -1 -53 -11z"/>
<path d="M1870 846 c0 -7 17 -13 41 -15 30 -1 40 2 37 11 -6 16 -78 20 -78 4z"/>
<path d="M1973 853 c-7 -3 -13 -12 -12 -21 0 -9 3 -12 5 -6 3 6 16 9 29 6 14
-2 25 0 25 6 0 11 -29 21 -47 15z"/>
<path d="M2030 842 c0 -7 11 -11 28 -10 15 1 32 -1 38 -4 14 -9 76 5 72 16 -5
16 -138 13 -138 -2z"/>
<path d="M2200 852 c-5 -2 -10 -11 -9 -20 0 -9 3 -12 5 -6 2 6 18 8 34 6 21
-3 30 0 30 9 0 13 -35 19 -60 11z"/>
<path d="M2270 847 c0 -13 18 -15 105 -16 65 -1 105 3 105 9 0 5 -6 10 -12 11
-7 1 -25 2 -40 3 -16 2 -28 -1 -28 -6 0 -5 -5 -6 -12 -2 -18 11 -88 12 -88 1
0 -5 -7 -4 -15 3 -12 10 -15 10 -15 -3z"/>
<path d="M2508 853 c-32 -8 -19 -24 17 -21 19 1 34 7 32 13 -4 12 -24 15 -49
8z"/>
<path d="M2570 840 c0 -5 21 -10 46 -10 27 0 43 4 39 10 -3 6 -24 10 -46 10
-21 0 -39 -4 -39 -10z"/>
<path d="M85 742 c-3 -9 0 -12 9 -9 8 3 17 3 20 0 7 -7 146 -6 154 1 11 12 -5
15 -90 19 -69 2 -88 0 -93 -11z"/>
<path d="M135 643 c-3 -9 8 -13 35 -13 25 0 40 5 40 13 0 7 -14 12 -35 12 -19
0 -37 -6 -40 -12z"/>
<path d="M220 645 c0 -13 16 -16 100 -14 55 1 103 6 106 11 4 6 -30 9 -94 6
-55 -1 -98 0 -95 5 2 4 -1 7 -6 7 -6 0 -11 -7 -11 -15z"/>
<path d="M443 647 c-8 -13 -2 -15 61 -18 40 -2 61 1 64 9 4 14 6 13 -66 16
-30 1 -56 -2 -59 -7z"/>
<path d="M598 652 c-29 -6 -20 -22 12 -22 18 0 30 5 30 13 0 14 -11 16 -42 9z"/>
<path d="M1057 654 c-18 -18 -1 -24 73 -24 51 0 80 4 80 11 0 7 -24 9 -70 7
-39 -2 -71 1 -73 5 -1 5 -6 5 -10 1z"/>
<path d="M1403 652 c-51 -5 -39 -22 16 -22 27 0 56 -3 65 -6 10 -4 16 -1 16 9
0 16 -42 24 -97 19z"/>
<path d="M1543 652 c-18 -2 -33 -8 -33 -13 0 -6 8 -9 18 -7 9 1 23 -1 30 -5 7
-5 15 -2 18 8 8 20 6 21 -33 17z"/>
<path d="M1698 652 c-61 -1 -108 -7 -108 -12 0 -6 21 -11 48 -11 63 -2 166 2
171 6 14 15 -19 20 -111 17z"/>
<path d="M650 641 c0 -4 59 -9 130 -10 83 -1 130 2 130 8 0 7 -48 10 -130 10
-71 0 -130 -4 -130 -8z"/>
<path d="M970 637 c0 -9 11 -12 35 -9 19 2 35 8 35 13 0 5 -16 9 -35 9 -22 0
-35 -5 -35 -13z"/>
<path d="M1270 641 c0 -15 79 -18 84 -4 4 9 -7 13 -39 13 -25 0 -45 -4 -45 -9z"/>
<path d="M130 583 c0 -9 16 -13 48 -14 26 -1 57 -3 70 -4 25 -3 41 13 20 19
-7 3 -41 6 -75 8 -47 3 -63 1 -63 -9z"/>
<path d="M290 588 c0 -8 14 -14 38 -16 105 -7 122 -6 126 5 4 9 -13 12 -59 12
-35 -1 -73 2 -84 6 -14 4 -21 2 -21 -7z"/>
<path d="M1154 591 c-2 -3 -38 -4 -79 -3 -55 2 -75 -1 -75 -10 0 -10 20 -13
72 -12 40 1 75 3 78 4 3 1 22 1 43 0 20 -1 37 3 37 8 0 10 -67 22 -76 13z"/>
<path d="M505 581 c-7 -13 4 -17 39 -16 44 1 46 25 2 25 -19 0 -37 -4 -41 -9z"/>
<path d="M590 577 c0 -7 13 -12 30 -12 18 -1 30 4 30 12 0 8 -12 13 -30 13
-17 0 -30 -5 -30 -13z"/>
<path d="M673 576 c2 -6 30 -11 64 -11 45 0 59 3 55 13 -6 16 -124 14 -119 -2z"/>
<path d="M860 580 c0 -12 -1 -11 69 -13 34 0 56 4 59 11 2 8 -16 12 -62 12
-37 0 -66 -4 -66 -10z"/>
<path d="M1242 578 c6 -16 55 -18 68 -3 7 9 -1 12 -31 13 -28 1 -39 -2 -37
-10z"/>
<path d="M1330 579 c0 -7 24 -9 70 -7 39 2 71 -1 73 -6 2 -6 6 -2 10 7 6 15
-2 17 -73 17 -51 0 -80 -4 -80 -11z"/>
<path d="M136 532 c-13 -22 2 -27 85 -27 56 0 84 4 87 13 3 9 -16 12 -72 11
-49 -1 -76 -5 -77 -13 0 -6 -4 -2 -8 8 -5 14 -10 16 -15 8z"/>
<path d="M320 523 c0 -15 9 -18 63 -18 41 0 64 4 64 11 0 7 -19 12 -45 12 -24
1 -53 4 -63 7 -14 5 -19 1 -19 -12z"/>
<path d="M465 530 c-14 -23 23 -35 52 -17 6 4 15 3 18 -3 5 -8 11 -7 21 1 8 7
14 7 14 1 0 -5 11 -9 25 -8 14 0 25 7 25 13 0 9 -19 12 -64 12 -36 -1 -69 2
-75 5 -5 4 -12 2 -16 -4z"/>
<path d="M632 518 c3 -7 17 -12 33 -12 16 0 30 5 33 12 2 8 -9 12 -33 12 -24
0 -35 -4 -33 -12z"/>
<path d="M710 521 c0 -10 40 -19 58 -13 25 8 11 22 -23 22 -19 0 -35 -4 -35
-9z"/>
<path d="M790 514 c0 -7 13 -11 30 -10 17 0 30 6 30 14 0 8 -11 11 -30 10 -16
-1 -30 -8 -30 -14z"/>
<path d="M890 521 c0 -12 21 -19 43 -13 28 7 20 22 -13 22 -16 0 -30 -4 -30
-9z"/>
<path d="M962 518 c5 -15 35 -17 61 -5 10 5 17 4 17 -3 0 -6 5 -8 10 -5 21 13
-2 25 -46 25 -32 0 -44 -4 -42 -12z"/>
<path d="M1075 520 c-8 -12 -13 -11 73 -14 53 -1 72 2 72 11 0 16 -135 19
-145 3z"/>
<path d="M1270 518 c0 -12 17 -14 100 -9 11 1 20 6 20 11 0 6 -27 10 -60 10
-41 0 -60 -4 -60 -12z"/>
<path d="M1403 517 c4 -13 46 -15 66 -2 8 4 12 4 8 -1 -3 -5 11 -8 31 -8 50 2
52 3 52 13 0 5 -36 9 -81 9 -55 0 -79 -3 -76 -11z"/>
<path d="M1570 517 c0 -13 38 -16 57 -4 5 4 13 3 17 0 4 -4 20 -8 36 -9 21 -2
27 1 23 12 -7 19 -133 20 -133 1z"/>
<path d="M133 457 c6 -18 177 -22 177 -4 0 9 -24 13 -91 14 -64 1 -89 -2 -86
-10z"/>
<path d="M330 456 c0 -11 14 -14 59 -14 32 1 64 -2 70 -7 14 -8 24 -1 27 19 1
10 -12 14 -48 15 -33 0 -47 -3 -42 -10 4 -8 0 -8 -14 0 -29 15 -52 14 -52 -3z"/>
<path d="M500 460 c0 -9 20 -16 65 -22 12 -2 19 2 17 10 -2 9 3 10 15 4 10 -4
35 -10 55 -11 30 -2 37 1 32 13 -4 11 -21 14 -72 13 -37 -1 -73 -6 -81 -11
-10 -6 -12 -6 -7 2 4 7 1 12 -8 12 -9 0 -16 -4 -16 -10z"/>
<path d="M745 461 c-17 -16 5 -22 72 -19 102 4 108 24 8 24 -42 0 -78 -2 -80
-5z"/>
<path d="M910 450 c0 -14 6 -17 23 -13 12 3 28 11 36 17 11 8 13 8 8 0 -4 -7
13 -12 54 -13 45 -1 60 2 57 11 -3 9 -31 13 -91 14 -77 1 -87 -1 -87 -16z"/>
<path d="M1100 455 c0 -10 10 -15 30 -15 18 0 30 5 30 13 0 7 -13 14 -30 15
-21 2 -30 -2 -30 -13z"/>
<path d="M1170 455 c0 -7 15 -12 35 -13 22 -1 35 3 35 11 0 9 2 9 8 -1 10 -15
74 -13 69 3 -5 15 -147 16 -147 0z"/>
<path d="M1360 455 c0 -6 25 -11 55 -12 38 -1 55 3 55 12 0 9 -17 12 -55 11
-30 0 -55 -6 -55 -11z"/>
<path d="M1520 456 c0 -17 67 -19 73 -3 3 9 -7 13 -34 14 -25 1 -39 -4 -39
-11z"/>
<path d="M1610 453 c0 -10 10 -14 33 -12 18 2 38 0 44 -4 13 -8 29 10 18 21
-3 4 -26 7 -51 8 -32 1 -44 -3 -44 -13z"/>
<path d="M1723 456 c4 -12 92 -25 107 -16 5 3 6 11 2 17 -9 14 -114 14 -109
-1z"/>
<path d="M86 356 c6 -17 94 -18 94 -2 0 8 -17 12 -49 13 -33 0 -48 -4 -45 -11z"/>
<path d="M190 355 c0 -11 7 -15 23 -13 12 2 22 8 22 13 0 6 -10 11 -22 13 -16
2 -23 -2 -23 -13z"/>
<path d="M250 358 c0 -14 9 -18 43 -18 52 0 61 24 10 27 -20 1 -33 -3 -33 -10
0 -7 -4 -6 -10 3 -8 13 -10 12 -10 -2z"/>
<path d="M130 254 c0 -18 135 -21 157 -3 9 8 13 8 13 0 0 -6 7 -11 16 -11 9 0
14 6 12 12 -6 17 -198 18 -198 2z"/>
<path d="M340 256 c0 -10 9 -16 25 -16 14 0 25 5 25 10 0 6 -4 10 -9 10 -5 0
-16 3 -25 6 -11 4 -16 1 -16 -10z"/>
<path d="M404 261 c-13 -13 1 -21 36 -21 27 0 40 4 40 14 0 9 -12 13 -36 12
-19 0 -37 -3 -40 -5z"/>
<path d="M543 262 c-13 -2 -23 -8 -23 -13 0 -12 137 -12 144 0 6 9 -81 19
-121 13z"/>
<path d="M680 254 c0 -13 46 -25 67 -17 25 10 13 21 -27 25 -26 2 -40 -1 -40
-8z"/>
<path d="M770 254 c0 -7 27 -11 75 -12 42 -1 75 3 75 8 0 6 -3 10 -7 11 -82 5
-143 2 -143 -7z"/>
<path d="M935 262 c-13 -13 -1 -19 45 -20 27 0 52 3 55 9 4 5 -6 9 -22 10 -15
0 -38 2 -51 3 -12 2 -24 0 -27 -2z"/>
<path d="M1050 253 c0 -9 22 -13 75 -13 43 0 75 4 75 10 0 6 -17 10 -37 11
-21 0 -55 1 -76 2 -24 1 -37 -2 -37 -10z"/>
<path d="M1214 261 c-2 -2 -4 -9 -4 -15 0 -7 22 -10 61 -8 45 3 58 7 50 15
-11 11 -98 17 -107 8z"/>
<path d="M130 198 c0 -14 8 -18 35 -18 40 0 47 15 10 22 -14 3 -25 1 -25 -6 0
-6 -5 -4 -10 4 -8 13 -10 12 -10 -2z"/>
<path d="M210 197 c0 -9 10 -14 25 -14 14 0 25 3 25 8 0 5 -4 9 -9 9 -5 0 -16
3 -25 6 -10 4 -16 1 -16 -9z"/>
<path d="M280 195 c0 -13 99 -26 128 -17 29 10 8 22 -40 23 -29 0 -61 2 -70 4
-10 2 -18 -3 -18 -10z"/>
<path d="M430 194 c0 -7 29 -12 88 -13 110 -3 101 16 -10 21 -55 3 -78 0 -78
-8z"/>
<path d="M700 195 c0 -11 13 -15 55 -15 41 0 55 4 55 14 0 10 -8 13 -27 10
-15 -3 -29 -7 -31 -9 -2 -2 -15 0 -28 5 -19 7 -24 6 -24 -5z"/>
<path d="M904 201 c-13 -14 1 -21 41 -21 25 0 45 4 45 9 0 9 -77 20 -86 12z"/>
<path d="M610 188 c0 -8 12 -12 30 -12 46 2 50 3 50 14 0 6 -18 10 -40 10 -25
0 -40 -5 -40 -12z"/>
<path d="M820 190 c0 -5 16 -10 35 -10 19 0 35 5 35 10 0 6 -16 10 -35 10 -19
0 -35 -4 -35 -10z"/>
<path d="M1050 187 c0 -9 11 -12 35 -9 19 2 35 8 35 13 0 5 -16 9 -35 9 -22 0
-35 -5 -35 -13z"/>
<path d="M1130 189 c0 -6 26 -9 70 -7 39 2 70 -1 70 -5 0 -5 5 -5 10 -2 27 16
3 25 -70 25 -49 0 -80 -4 -80 -11z"/>
<path d="M133 136 c5 -14 97 -21 97 -7 0 6 -12 12 -27 12 -16 1 -38 3 -51 4
-13 1 -21 -2 -19 -9z"/>
<path d="M742 133 c4 -19 118 -25 118 -6 0 7 -10 13 -22 14 -13 0 -40 2 -61 4
-29 2 -37 -1 -35 -12z"/>
<path d="M1370 133 c0 -8 13 -13 35 -13 19 0 35 5 35 10 0 11 -2 12 -42 14
-17 1 -28 -3 -28 -11z"/>
<path d="M240 130 c0 -5 18 -10 40 -10 22 0 43 0 47 -1 4 0 9 4 11 10 2 7 -15
11 -47 11 -28 0 -51 -4 -51 -10z"/>
<path d="M390 133 c0 -5 23 -9 50 -11 29 -1 50 2 50 8 0 5 -22 10 -50 10 -27
0 -50 -3 -50 -7z"/>
<path d="M502 128 c2 -6 18 -12 35 -12 18 -1 29 3 26 10 -5 14 -65 16 -61 2z"/>
<path d="M630 130 c0 -12 29 -20 35 -10 3 4 19 6 35 4 17 -3 30 -1 30 5 0 6
-21 10 -50 10 -27 -1 -50 -5 -50 -9z"/>
<path d="M870 130 c0 -6 27 -10 60 -10 33 0 60 4 60 10 0 6 -27 10 -60 10 -33
0 -60 -4 -60 -10z"/>
<path d="M1040 124 c0 -11 6 -14 23 -8 23 8 105 6 119 -2 4 -3 8 2 8 10 0 13
-14 16 -75 16 -61 0 -75 -3 -75 -16z"/>
<path d="M1206 132 c-14 -13 8 -17 78 -14 42 2 76 8 76 13 0 10 -145 11 -154
1z"/>
<path d="M52 72 c-41 -2 -52 -7 -52 -20 0 -16 36 -17 510 -14 503 3 510 2 522
-18 12 -18 22 -20 113 -19 55 1 88 4 73 6 -16 2 -28 10 -28 16 0 9 32 12 110
12 79 0 110 -3 110 -12 0 -8 -26 -13 -82 -16 -46 -1 -22 -3 52 -3 74 0 114 1
88 3 -34 3 -48 8 -48 19 0 15 15 17 73 7 26 -4 36 -10 33 -19 -4 -9 2 -14 17
-13 12 0 16 3 10 6 -29 11 -12 30 25 27 20 -2 49 -3 65 -3 48 -1 29 -20 -25
-24 -30 -2 -9 -4 47 -5 65 -1 95 2 85 8 -8 5 -12 11 -9 14 5 6 53 10 77 7 23
-2 12 -20 -15 -24 -16 -2 23 -5 86 -6 91 -1 116 2 125 14 9 13 78 15 499 16
474 0 487 1 487 20 0 19 -17 19 -822 19 -453 1 -1104 2 -1448 3 -344 1 -649 1
-678 -1z m1128 -49 c0 -9 -14 -13 -40 -13 -29 0 -40 4 -40 15 0 12 10 15 40
13 25 -1 40 -7 40 -15z m550 1 c0 -8 -10 -14 -25 -14 -38 0 -34 24 5 27 11 1
20 -4 20 -13z m264 1 c4 -13 -8 -15 -74 -15 -100 0 -106 18 -7 23 39 1 73 4
73 5 1 1 4 -5 8 -13z"/>
</g>
</svg>
